<svg aria-hidden="true" style="width:0;height:0;position:absolute;overflow:hidden" xmlns="http://www.w3.org/2000/svg"><defs><symbol id="icon-head" viewBox="0 0 28 32"><path fill="#c3cd4d" style="fill:var(--color1,#c3cd4d)" d="M4.2 31.962c1.986-4.963 1.224-8.688-3.123-15.661C-1.176 12.687-.008 4.132 6.944 1.398 12.101-.63 18.411-.476 22.806 2.915c1.677 1.294 2.209 3.318 2.2 5.418-.002.344.052.686.153 1.015.244.79.451 1.591.168 2.267-.36.861-.534 1.53 0 2.298l2.543 3.87a.557.557 0 0 1-.396.859c-1.149.15-1.826.713-1.143 2.275.143.326.119.61-.201.781-.313.167-.32.348-.178.692.116.281-.029.56-.223.803-.491.677-.58 1.446-.379 2.454.239 1.198-.132 2.156-1.093 2.097-1.712-.106-3.144-.534-4.506.067-1.469.648-2.099 2.068-1.941 4.172l-13.609-.022z"/></symbol><symbol id="icon-body" viewBox="0 0 12 32"><path fill="#c3cd4d" style="fill:var(--color1,#c3cd4d)" d="M12.04 17.346a.77.77 0 0 1-.288-.348.384.384 0 0 0-.154-.174l-.388-.234c-.013-.007-.02-.02-.013-.033.087-.642-.334-4.675-.334-4.895 0-.053-.053-.415-.094-.669a1.308 1.308 0 0 1 0-.428c.14-.903-.134-2.234-.247-2.742v-.08c.635-2.294-.91-2.267-.976-2.267h-.007a4.958 4.958 0 0 1-1.03-.247 21.728 21.728 0 0 0-1.197-.395.415.415 0 0 1-.294-.395v-.408c0-.007 0-.013.007-.02.254-.314.421-.736.528-1.157.007-.013.013-.02.034-.02.147 0 .341-.234.368-.488.027-.268-.067-.488-.214-.502h-.013a6.69 6.69 0 0 0 .013-.348C7.721.66 7.052.105 6.203.018 5.347.105 4.685.66 4.678 1.496c0 .1.007.221.013.348h-.013c-.147.013-.241.234-.214.502.033.261.227.488.368.488.013 0 .027.007.033.02.107.421.274.843.528 1.157.007.007.007.013.007.02v.401c0 .181-.12.341-.294.395-.301.087-.709.221-1.197.395a4.88 4.88 0 0 1-1.03.247h-.007c-.067 0-1.612-.027-.976 2.267v.08c-.12.508-.388 1.846-.247 2.742.02.14.02.288 0 .428-.04.254-.094.615-.094.669 0 .221-.421 4.253-.334 4.895a.053.053 0 0 1-.013.033l-.388.234a.39.39 0 0 0-.154.174.763.763 0 0 1-.288.348c-.227.134-.381.06-.328.214s.314.14.408.114c.067-.02.234.033.441-.14l-.013.047-.013.04c-.007.02-.094.261-.1.274l-.368.729c-.047.06-.027.127.027.154l.074.033c.04.02.094.007.127-.027l.428-.709c.027-.033.067-.033.1-.013l.013.007c.02.02.033.047.02.074l-.301 1.01c-.02.06.013.12.074.134l.04.013c.047.013.1-.013.12-.06l.395-1.057c.013-.033.013-.033.047-.04l.054.02c.013.02.02.04.02.067v.869c0 .06.027.114.074.147.087.06.161 0 .167-.067l.06-.93c0-.033.033-.067.067-.067s.06.027.067.06l.074.502c.007.053.06.1.114.094a.108.108 0 0 0 .087-.074l.074-.742c.02-.167.06-.675.033-.843l-.127-.609c-.007-.013-.007-.027-.02-.033-.007-.007-.007-.013-.007-.027.06-.395.341-.742.829-3.344.013-.074.02-.147.027-.221l.054-.809c.207-.776.288-2.274.308-2.675.04-.007.08.013.087.053l.107.635v.007c0 .334 0 .702.067 1.13.027.187-.04.542-.12.936-.033.134-.074.294-.114.482-.415 1.585-.368 2.635-.401 3.27v.14c-.013.435.02.635.02.649.013.401.047.863.114 1.378.114 1.124.314 2.869.609 4.24.067.321.067.655.007.983-.107.542-.234 1.438-.1 2.12.194.976.843 3.959.936 4.36 0 .007 0 .02-.007.027-.027.033-.053.067-.087.094-.067.074-.154.207-.187.448-.033.227-.542.963-.448 1.11.074.12.856.301 1.317.361.107.013.027.12.361.087.114-.013.107-.027.127-.281 0-.047.06-.134.06-.187.007-.301-.013-.796-.047-1.618l-.107-2.528c0-.007.181-1.511.107-1.839s.114-2.187.114-2.194v-1.705c0-.04.16-2.642.267-3.324.107.682.268 3.284.268 3.324v1.705c0 .007.187 1.866.114 2.194s.107 1.832.107 1.839l-.107 2.528c-.033.823-.053 1.317-.047 1.618 0 .053.06.14.06.187.02.254.013.267.127.281.334.033.254-.074.361-.087.461-.06 1.244-.241 1.317-.361.094-.147-.415-.883-.448-1.11-.033-.241-.12-.375-.187-.448-.027-.027-.06-.067-.087-.094-.007-.007-.007-.013-.007-.027.087-.401.742-3.384.936-4.36.134-.682.007-1.578-.1-2.12a2.56 2.56 0 0 1 .007-.983c.294-1.371.495-3.116.609-4.24.067-.515.1-.976.114-1.378 0-.013.033-.214.02-.649v-.14c-.033-.635.013-1.685-.401-3.27-.04-.187-.08-.348-.114-.482-.08-.395-.147-.749-.12-.936.067-.428.067-.796.067-1.13v-.007l.107-.635c.007-.04.047-.06.087-.053.02.401.1 1.899.308 2.675l.053.809c.007.074.013.147.027.221.488 2.601.769 2.942.829 3.344 0 .007 0 .02-.007.027s-.013.02-.02.033l-.127.609c-.027.167.013.675.033.843l.074.742a.11.11 0 0 0 .087.074c.053.007.107-.04.114-.094l.074-.502c.007-.033.033-.06.067-.06s.067.033.067.067l.06.93c.007.067.087.134.167.067a.187.187 0 0 0 .074-.147v-.869c0-.027.007-.047.02-.067l.053-.02c.033.007.034.007.047.04l.395 1.057c.02.047.074.074.12.06l.04-.013a.102.102 0 0 0 .074-.134l-.301-1.01c-.013-.027 0-.053.02-.074l.013-.007c.033-.02.073-.02.1.013l.428.709c.033.033.087.047.127.027l.074-.033a.102.102 0 0 0 .04-.147l-.368-.729a8.49 8.49 0 0 1-.1-.274l-.013-.04-.013-.047c.207.174.374.12.441.14.094.027.354.04.408-.114s-.1-.08-.328-.214z"/></symbol><symbol id="icon-money" viewBox="0 0 32 32"><path fill="#c3cc4d" style="fill:var(--color2,#c3cc4d)" d="M12.171 9.697c.123.049.256.088.399.116l-.174.433a.454.454 0 0 0 .842.338l.261-.65.092.012a2.646 2.646 0 0 0 1.47-.247c.457-.222.828-.576 1-1.004a1.48 1.48 0 0 0 .092-.351v-.002a1.298 1.298 0 0 0-.223-.906 1.633 1.633 0 0 0-.747-.577 2.24 2.24 0 0 0-.542-.138l-.879-.111a1.277 1.277 0 0 1-.318-.08.74.74 0 0 1-.338-.25.395.395 0 0 1-.07-.278L13.038 6a.5.5 0 0 1 .033-.126c.084-.21.292-.396.556-.525.287-.139.629-.205.957-.165l.414.053a.436.436 0 0 0 .049.006l.415.053c.116.014.222.042.318.08a.74.74 0 0 1 .338.25.398.398 0 0 1 .07.278.53.53 0 0 1-.035.127.454.454 0 1 0 .843.337 1.48 1.48 0 0 0 .092-.351v-.002a1.294 1.294 0 0 0-.223-.905 1.633 1.633 0 0 0-.747-.577 2.158 2.158 0 0 0-.399-.115l.174-.434a.454.454 0 0 0-.842-.338l-.262.65-.094-.012a2.65 2.65 0 0 0-1.468.247c-.457.223-.828.576-1.001 1.004a1.342 1.342 0 0 0-.092.354c-.041.329.041.64.223.906.17.246.426.448.747.577.163.065.344.112.542.137l.879.111c.115.014.222.042.318.08a.74.74 0 0 1 .338.25.398.398 0 0 1 .07.278.53.53 0 0 1-.035.127c-.084.21-.292.396-.556.525-.288.14-.63.206-.957.165l-.413-.052c-.018-.003-.034-.006-.052-.006l-.413-.053a1.277 1.277 0 0 1-.318-.08.74.74 0 0 1-.338-.25.398.398 0 0 1-.07-.278.53.53 0 0 1 .035-.127.454.454 0 1 0-.843-.337 1.48 1.48 0 0 0-.092.351v.002c-.041.328.041.64.223.905.172.246.428.448.749.577zm-9.96-2.582c0-1.508 1.393-2.836 3.645-3.764 2.131-.878 5.063-1.421 8.29-1.421s6.159.543 8.29 1.421c2.252.927 3.645 2.256 3.645 3.764s-1.393 2.836-3.645 3.764c-2.131.878-5.063 1.421-8.29 1.421s-6.16-.543-8.29-1.421c-2.252-.927-3.645-2.256-3.645-3.764zm.909 0c0 1.104 1.177 2.141 3.08 2.925 2.024.834 4.832 1.349 7.945 1.349s5.921-.516 7.945-1.349c1.903-.784 3.08-1.821 3.08-2.925s-1.177-2.141-3.08-2.925c-2.024-.834-4.833-1.349-7.945-1.349S8.224 3.357 6.2 4.19c-1.903.784-3.08 1.821-3.08 2.925zm28.799 6.458v4.923c0 1.145-.534 2.22-1.485 3.166a7.998 7.998 0 0 1-.703.618l.001 2.675c0 1.999-1.625 3.781-4.252 5.044-2.526 1.215-6.004 1.967-9.835 1.967s-7.309-.752-9.835-1.967c-2.627-1.263-4.252-3.044-4.252-5.044v-4.923c0-.722.214-1.419.613-2.076.296-.488.695-.95 1.182-1.383a9.213 9.213 0 0 1-1.81-1.369C.592 14.258.057 13.183.057 12.038V7.114c0-1.999 1.626-3.78 4.252-5.044C6.836.856 10.314.104 14.144.104s7.309.752 9.835 1.967c2.627 1.263 4.252 3.045 4.252 5.044v1.703c1.106.597 2.002 1.292 2.632 2.058.681.828 1.055 1.737 1.055 2.696zm-3.687-3.714v1.123c.452.346.814.722 1.071 1.119.303.465.464.959.464 1.472 0 1.479-1.339 2.785-3.513 3.709-2.052.871-4.884 1.427-8.022 1.47l-.061.009-.115.017c-.159.022-.32.044-.482.064l-.036.005h-.002l-.008.001-.063.007c-.143.017-.287.033-.432.048l-.072.007c-.165.017-.33.031-.497.045l-.048.004-.075.006-.164.012-.076.005a28.531 28.531 0 0 1-3.898.001l-.098-.006-.15-.011-.082-.006-.123-.01-.092-.008-.06-.005.045.011c.136.034.273.068.413.1h.001l.287.064a24.22 24.22 0 0 0 2.19.366l.014.002a27.43 27.43 0 0 0 3.286.195c1.13 0 2.227-.067 3.274-.194l.03-.003a24.07 24.07 0 0 0 2.195-.367l.003-.001a19.458 19.458 0 0 0 2.182-.599 15.72 15.72 0 0 0 1.757-.71c.115-.055.226-.112.336-.168a.529.529 0 0 1 .071-.037c.816-.429 1.507-.91 2.044-1.427a.552.552 0 0 1 .073-.072c.775-.773 1.209-1.629 1.209-2.522 0-.742-.3-1.458-.845-2.121-.472-.574-1.127-1.11-1.931-1.591zm-1.336.27-.046.049v3.459c.027-.044.053-.088.076-.133l.046-.088.029-.057c.019-.039.038-.077.054-.116l.011-.024.052-.125.008-.021c.016-.041.031-.084.045-.126l.008-.025c.014-.041.026-.081.037-.122l.009-.033.029-.115a3.354 3.354 0 0 0 .03-.15l.009-.059a1.484 1.484 0 0 0 .02-.173c.002-.025.005-.049.006-.075.002-.046.004-.092.004-.139l.001-.018V9.627l-.03.038a5.111 5.111 0 0 1-.096.122l-.047.057a5.064 5.064 0 0 1-.099.115l-.052.058a5.144 5.144 0 0 1-.102.111zm-9.962 7.87.096-.01V13.98c-.432.044-.871.079-1.317.103v4.012c.148-.008.296-.018.444-.028.023-.002.047-.003.07-.006a24.346 24.346 0 0 0 .651-.057l.057-.006zm-4.817.067c.152.011.306.021.46.029v-4.012a27.765 27.765 0 0 1-1.317-.103v4.009l.079.009.081.009c.152.015.306.029.46.041l.21.017a.122.122 0 0 1 .027.001zm11.738 1.856v3.991c.455-.11.894-.233 1.317-.366v-3.975a20.86 20.86 0 0 1-1.317.35zm2.226-.648v3.959c.42-.158.818-.328 1.194-.509l.123-.061v-3.92c-.415.19-.855.367-1.317.531zm-3.136.84a26.03 26.03 0 0 1-1.317.216v4.006c.449-.064.889-.138 1.317-.223v-3.998zm-2.227 4.334v-4.009c-.432.044-.871.079-1.317.103v4.012c.446-.026.885-.06 1.317-.106zm-2.886-3.864c-.221 0-.441-.003-.659-.008v4.01c.176.005.352.008.528.01l.131.001c.221 0 .441-.002.659-.008v-4.013c-.218.005-.437.007-.659.007zm6.9-8.817a3.938 3.938 0 0 1-.111.061v3.875c.18-.11.354-.222.517-.337.295-.207.562-.422.8-.644v-3.743l-.009.006-.051.037c-.05.037-.101.076-.154.112l-.073.052a8.37 8.37 0 0 1-.139.096l-.085.056-.135.088-.092.058-.136.084-.096.058-.14.082c-.032.02-.064.038-.097.056zm-1.02.518c-.416.19-.855.367-1.317.531v3.957a14.183 14.183 0 0 0 1.316-.569v-3.919h.001zm-2.227.828c-.425.127-.864.245-1.318.35v3.99a19 19 0 0 0 .569-.147l.026-.006.03-.008c.154-.043.308-.087.46-.133l.056-.017c.06-.018.117-.037.176-.056v-3.974h.001zm-2.227.542c-.429.082-.868.155-1.318.216v4.006l.127-.018.118-.017a9.467 9.467 0 0 0 .3-.048l.096-.016c.227-.038.452-.08.675-.125v-3.997h.001zm-4.454 4.475v-4.013a28.68 28.68 0 0 1-1.318 0v4.013a28.75 28.75 0 0 0 1.318 0zm-2.085 5.962c.432.086.872.162 1.317.226v-3.987a25.16 25.16 0 0 1-1.318-.216v3.977zm2.227-3.654v3.994c.436.048.875.085 1.318.112v-4.003c-.446-.025-.885-.06-1.318-.104zm-9.827-.362.01.015v-2.645l-.075-.03c-.061-.025-.12-.052-.179-.078a3.97 3.97 0 0 0-.115-.049c-.034-.015-.07-.029-.104-.045v1.253c0 .1.006.2.017.299l.01.072a.943.943 0 0 0 .008.056l.012.071c.006.034.012.069.02.103.018.075.037.145.057.212l.044.137c.029.085.062.166.099.248l.045.096.002.003.02.041c.033.067.07.135.112.208l.019.034zm3.003-6.612a21.99 21.99 0 0 1-1.318-.35v3.974l.104.033.432.127a.069.069 0 0 1 .008.003l.071.02.238.065.028.007.137.036.197.049.104.025v-3.989h-.001zm-1.674 8.07.151.119c.02.011.037.025.053.039l.225.161c.084.058.174.119.272.182l.195.122.01.006v-3.876l-.094-.052-.127-.073-.096-.055-.396-.119a27.584 27.584 0 0 1-.413-.133c-.019-.006-.038-.011-.056-.019l-.056-.019-.051-.018a.23.23 0 0 1-.028-.01v3.38c.118.117.249.235.41.365zm3.134 1.681v-3.94l-.056-.02-.15-.055-.159-.059-.147-.057-.155-.061a6.109 6.109 0 0 1-.143-.059c-.051-.021-.101-.041-.151-.063l-.139-.061a6.61 6.61 0 0 1-.219-.098v3.909c.418.203.858.391 1.317.563zm.767-5.338v-4.006a24.218 24.218 0 0 1-1.477-.242l.16.026v3.997l.16.033.019.004c.161.031.323.06.487.087l.116.02.098.016.202.032.096.014.139.019zm-5.771-5.593v3.92l.038.019.061.03a15.124 15.124 0 0 0 1.218.519v-3.957a16.645 16.645 0 0 1-1.317-.531zm6.926 7.565a5.884 5.884 0 0 1-.142-.037l-.202-.052-.158-.043-.18-.049-.161-.047-.169-.049v3.954c.292.1.733.225 1.179.335l.138.029v-3.968l-.305-.073zm12.408-2.732a14.753 14.753 0 0 0 1.987-.67c1.831-.778 2.958-1.795 2.958-2.873 0-.334-.109-.663-.315-.978a3.028 3.028 0 0 0-.314-.399l-.001.013-.002.033-.004.054-.004.05-.004.05-.006.052-.007.054a2.662 2.662 0 0 1-.031.199 3.673 3.673 0 0 1-.037.176l-.005.021a4.128 4.128 0 0 1-.389 1.005l-.017.031.001-.002a3.993 3.993 0 0 1-.088.153l-.031.052-.078.122c-.016.024-.031.049-.048.072l-.06.084a6.03 6.03 0 0 1-.726.843 8.375 8.375 0 0 1-1.034.851c-.39.274-.817.532-1.276.771l-.003.002a10.061 10.061 0 0 1-.308.155l-.163.078zM2.351 14.728c.373.345.815.672 1.317.978v-3.878a6.102 6.102 0 0 0-.111-.061l-.095-.054-.144-.084-.092-.056a8.712 8.712 0 0 1-.141-.087l-.087-.055a4.895 4.895 0 0 1-.141-.092l-.079-.053a7.551 7.551 0 0 1-.212-.147l-.164-.12-.041-.03-.011-.008v3.747zm1.501 12.917c.373.345.815.672 1.317.978v-3.878l-.108-.06-.104-.06-.135-.079-.1-.06a5.914 5.914 0 0 1-.133-.082l-.094-.06-.133-.087-.086-.057a6.658 6.658 0 0 1-.137-.095l-.075-.053-.152-.111a1.713 1.713 0 0 0-.052-.038l-.009-.006v3.748H3.85zm4.454-1.616v3.975c.423.134.863.256 1.317.366v-3.991a21.043 21.043 0 0 1-1.317-.35zm2.227 4.541c.428.085.867.159 1.317.223v-4.006a24.133 24.133 0 0 1-1.478-.242l.16.026v3.999zm2.228.336c.432.045.871.08 1.317.106V27a27.765 27.765 0 0 1-1.317-.103v4.009zm4.454-3.907v4.012c.446-.025.886-.06 1.317-.106v-4.009a26.41 26.41 0 0 1-1.317.103zm2.227 3.795c.449-.064.889-.138 1.318-.223v-3.999c-.429.082-.868.154-1.318.216v4.006zm2.227-.423c.455-.11.894-.233 1.317-.366v-3.973a21.85 21.85 0 0 1-1.317.349v3.991zm4.454-5.626v3.878a8.298 8.298 0 0 0 1.317-.978v-3.747l-.006.005a7.814 7.814 0 0 1-.146.107c-.041.03-.082.061-.124.09l-.162.111-.12.081-.181.115-.116.073a9.49 9.49 0 0 1-.199.118l-.11.065-.153.084zm2.901-3.06c.217-.162.418-.327.603-.498V17.44a.07.07 0 0 0-.01.008l-.041.031a5.27 5.27 0 0 1-.163.119l-.067.047c-.048.033-.096.068-.146.101a17.29 17.29 0 0 1-.22.145l-.087.055-.142.088-.091.055-.146.085-.092.053-.112.062v3.864c.232-.137.461-.28.7-.458.005-.006.01-.008.014-.011zM.968 7.115c0 .495.134.978.384 1.442a4.7 4.7 0 0 0 .898 1.152c.537.518 1.227.998 2.043 1.427.025.01.049.022.071.037.111.057.222.114.337.169a15.584 15.584 0 0 0 1.828.733 20.207 20.207 0 0 0 2.166.586 24.534 24.534 0 0 0 2.167.36c1.049.127 2.148.194 3.282.194s2.231-.068 3.28-.194l.022-.002a23.852 23.852 0 0 0 2.195-.367 20.475 20.475 0 0 0 2.187-.599 15.696 15.696 0 0 0 1.76-.711 10.645 10.645 0 0 0 .407-.204c.817-.429 1.508-.91 2.045-1.428a.452.452 0 0 1 .073-.072c.434-.434.762-.893.965-1.371.159-.374.244-.759.244-1.152 0-1.621-1.427-3.118-3.733-4.227-2.407-1.157-5.746-1.873-9.444-1.873s-7.036.716-9.444 1.873C2.395 3.996.968 5.493.968 7.114zm0 4.924c0 .55.165 1.086.472 1.598v-3.459l-.045-.047a2.913 2.913 0 0 1-.155-.172l-.092-.107-.008-.01-.045-.054-.097-.123-.029-.037v2.412zm1.979 6.386c-.311.511-.477 1.051-.477 1.607 0 .27.041.537.117.799.384 1.31 1.694 2.503 3.616 3.428 2.407 1.157 5.745 1.873 9.444 1.873 2.595 0 5.014-.354 7.06-.965l.167-.052.19-.059.176-.058.142-.047a26.205 26.205 0 0 1-2.143.352l-.026.003a27.79 27.79 0 0 1-3.024.198h-.002a28.13 28.13 0 0 1-3.729-.199l-.029-.003c-.482-.059-.954-.13-1.415-.212-2.626-.249-4.922-.866-6.559-1.713-1.716-.888-2.741-2.049-2.741-3.347 0-.146.014-.296.043-.449v-.002c.018-.101.045-.202.076-.302a2.994 2.994 0 0 1-.058-.346l-.002-.016-.001-.008v-.003a3.86 3.86 0 0 1-.024-.406v-1.056a4.924 4.924 0 0 0-.8.981zm-.478 6.53c0 .55.165 1.087.472 1.599v-3.459l-.046-.049a5.462 5.462 0 0 1-.103-.112l-.053-.059c-.033-.037-.065-.076-.097-.114l-.049-.058-.094-.119-.032-.041v2.412h.001zm3.733 4.226c.376.181.774.35 1.194.509v-3.959a16.645 16.645 0 0 1-1.317-.531v3.92c.042.022.082.041.123.061zm10.103 1.867v-4.014a28.68 28.68 0 0 1-1.318 0v4.013a28.75 28.75 0 0 0 1.318.001zm8.785-1.867.123-.061V25.2c-.081.037-.164.074-.248.11l-.048.022a16.621 16.621 0 0 1-.367.153c-.213.085-.431.167-.654.247v3.958c.419-.158.818-.328 1.194-.509zm3.733-6.267a6.91 6.91 0 0 1-.473.276v3.364c.308-.511.473-1.048.473-1.599v-2.041zm2.159-6.795a6.31 6.31 0 0 1-.101.128l-.043.052a2.956 2.956 0 0 1-.103.12l-.048.053a5.75 5.75 0 0 1-.152.163v3.459c.307-.511.473-1.048.473-1.599v-2.411l-.027.033z"/></symbol></defs></svg>