<svg xmlns="http://www.w3.org/2000/svg" aria-hidden="true" style="position:absolute;width:0;height:0;overflow:hidden">
  <defs>
    <symbol id="icon-Logo6" viewBox="0 0 59 32">
      <path d="M30.588 15.682a1.685 1.685 0 0 1-.346-1.138v-1.65c0-.506.115-.89.344-1.153s.624-.394 1.183-.393c.525 0 .898.112 1.119.336.24.286.358.635.331.987v.388h-.94v-.393a2.056 2.056 0 0 0-.027-.384.373.373 0 0 0-.134-.228.541.541 0 0 0-.34-.089.577.577 0 0 0-.358.094.443.443 0 0 0-.156.252 1.93 1.93 0 0 0-.037.408v2.003c-.015.193.027.387.121.562.047.06.112.107.188.136s.16.041.242.032c.12.009.24-.024.333-.091a.4.4 0 0 0 .14-.243 2.16 2.16 0 0 0 .029-.401v-.406h.94v.371c.026.367-.088.732-.325 1.038-.216.245-.584.368-1.125.368s-.949-.131-1.181-.403zM34.501 15.699c-.237-.257-.356-.631-.356-1.127v-1.736c0-.49.119-.861.356-1.113s.634-.377 1.191-.376c.553 0 .947.125 1.185.376.237.252.358.623.358 1.113v1.736c0 .49-.121.866-.362 1.125s-.634.388-1.181.388-.951-.131-1.191-.386zm1.628-.417a.968.968 0 0 0 .113-.514v-2.125a.943.943 0 0 0-.111-.504c-.048-.061-.114-.109-.192-.138s-.164-.04-.248-.03c-.084-.01-.17 0-.248.03s-.145.077-.193.138a.922.922 0 0 0-.113.504v2.136a.95.95 0 0 0 .113.514c.055.054.122.098.198.127a.68.68 0 0 0 .484 0 .59.59 0 0 0 .198-.127v-.01zM38.364 11.398h1.012l.761 3.203.778-3.203h.984l.099 4.623h-.728l-.078-3.213-.751 3.213h-.584l-.778-3.225-.072 3.225h-.735l.091-4.623zM43.133 11.398h1.576c.908 0 1.362.438 1.362 1.313 0 .838-.478 1.257-1.434 1.256H44.1v2.055h-.973l.006-4.623zm1.346 1.976c.096.011.194.003.286-.022s.177-.067.249-.124a.744.744 0 0 0 .14-.522 1.457 1.457 0 0 0-.047-.42c-.014-.046-.038-.089-.072-.127s-.075-.069-.123-.093a1.012 1.012 0 0 0-.434-.074h-.377v1.382h.377zM47.474 11.398h1.045l1.072 4.623h-.907l-.212-1.066h-.932l-.218 1.066h-.92l1.072-4.623zm.893 3.021-.364-1.941-.364 1.941h.728zM50.456 11.398h.681l1.304 2.637v-2.637h.807v4.623H52.6l-1.311-2.753v2.753h-.835l.002-4.623zM55.139 14.258l-1.084-2.854h.912l.661 1.833.621-1.833h.893l-1.07 2.854v1.763h-.934v-1.763zM32.09 18.042v.242h-.794v1.879h-.333v-1.879h-.798v-.242h1.924zM34.578 20.163h-.257a.119.119 0 0 1-.072-.02.113.113 0 0 1-.043-.049l-.23-.504h-1.101l-.23.504a.136.136 0 0 1-.035.057.119.119 0 0 1-.072.02h-.257l.973-2.12h.339l.984 2.112zm-1.61-.788h.918l-.389-.863a1.447 1.447 0 0 1-.072-.2l-.037.113-.035.089-.385.861zM36.256 19.954c.061.003.122.003.183 0 .053-.005.105-.013.156-.025.048-.01.094-.023.14-.039.043-.015.086-.034.13-.052v-.477h-.389c-.01 0-.019-.001-.028-.004a.07.07 0 0 1-.039-.03.038.038 0 0 1-.005-.021v-.163h.755v.813a1.497 1.497 0 0 1-.654.217 2.687 2.687 0 0 1-.284.013 1.497 1.497 0 0 1-.49-.079 1.178 1.178 0 0 1-.389-.222 1.028 1.028 0 0 1-.251-.336 1.07 1.07 0 0 1-.09-.44 1.099 1.099 0 0 1 .088-.443.97.97 0 0 1 .251-.336 1.19 1.19 0 0 1 .389-.22c.167-.054.343-.081.521-.079.091 0 .181.006.27.018a1.303 1.303 0 0 1 .427.138c.06.033.116.07.169.111l-.093.131c-.007.012-.018.022-.032.029s-.029.011-.044.011a.123.123 0 0 1-.06-.017 1.127 1.127 0 0 1-.095-.05.947.947 0 0 0-.13-.057 1.208 1.208 0 0 0-.426-.065 1.165 1.165 0 0 0-.376.059.835.835 0 0 0-.286.168.734.734 0 0 0-.181.264.99.99 0 0 0 0 .707c.043.1.109.191.195.267.08.073.177.13.284.168.124.037.255.051.385.042zM39.357 19.921h1.062v.242h-1.387v-2.12h.333l-.008 1.879zM41.524 20.162h-.333v-2.12h.333v2.12zM42.761 18.052c.02.01.037.023.051.039l1.422 1.598a.482.482 0 0 1 0-.076V18.033h.29v2.129h-.167a.146.146 0 0 1-.072-.012.211.211 0 0 1-.053-.04l-1.42-1.597v1.649h-.278v-2.12h.173a.14.14 0 0 1 .054.01zM46.974 18.042v.233h-1.179v.7h.955v.225h-.955v.724h1.179v.233h-1.521v-2.115h1.521zM12.112 4.948l14.772 3.619V21.25l-14.772-3.618V4.947zm-.948-1.081v14.382l16.666 4.084V7.953L11.164 3.867z"/>
      <path d="M20.096 29.01 3.429 24.922V10.541l16.667 4.086v14.382z"/>
      <path d="m11.44 4.785 14.58 3.574-6.2 5.352-14.582-3.576 6.202-5.35zm-.276-.918-7.735 6.675 16.667 4.086 7.733-6.675-16.666-4.086zM21.034 28.201l6.796-5.866-6.796-1.667V28.2z"/>
    </symbol>
    <symbol id="icon-Logo5" viewBox="0 0 59 32">
      <path d="M15.31 25.356c.14.156.215.352.211.553.007.131-.019.262-.075.383s-.143.229-.252.316c-.273.185-.61.276-.951.255h-1.671v-3.504h1.637c.323-.019.644.063.907.233.106.08.189.18.245.294s.08.238.073.361a.76.76 0 0 1-.19.536.91.91 0 0 1-.498.274.975.975 0 0 1 .565.3zm-1.961-.529h.7a.719.719 0 0 0 .445-.116c.053-.043.093-.096.12-.155s.037-.123.031-.187a.397.397 0 0 0-.148-.342.733.733 0 0 0-.458-.118h-.688v.919zm1.213 1.344c.056-.044.1-.099.129-.161s.041-.129.036-.195c.004-.068-.009-.135-.038-.198s-.074-.118-.131-.162a.786.786 0 0 0-.475-.127h-.734v.964h.744a.794.794 0 0 0 .47-.122zM18.656 26.862l-.911-1.369h-.342v1.369h-.783v-3.504h1.483c.374-.023.744.083 1.033.298.207.19.332.441.353.707s-.066.529-.242.743a1.245 1.245 0 0 1-.707.356l.97 1.4h-.852zm-1.253-1.847h.641c.445 0 .667-.177.667-.531.005-.072-.008-.145-.036-.212s-.072-.13-.128-.181a.75.75 0 0 0-.504-.142h-.648l.008 1.067zM22.939 26.157h-1.561l-.276.705h-.821l1.434-3.465h.888l1.428 3.465h-.822l-.27-.705zm-.209-.53-.57-1.479-.57 1.479h1.141zM28.299 26.863h-.778l-1.744-2.383v2.383h-.776v-3.504h.776l1.744 2.397v-2.397h.778v3.504zM32.737 26.024c-.161.265-.406.48-.704.618a2.5 2.5 0 0 1-1.093.221h-1.384v-3.504h1.384c.378-.009.754.065 1.093.216.298.135.543.348.704.611.16.285.243.6.243.919s-.083.634-.243.919zm-.89-.084c.222-.233.344-.529.344-.836s-.122-.603-.344-.836a1.448 1.448 0 0 0-.974-.298h-.54v2.268h.54c.355.02.705-.087.974-.298zM23.425 3.867s10.038 3.412 9.825 8.349v8.351s-10.031-3.413-9.821-8.351l-.004-8.349zM42.194 18.611c1.896-1.175 4.089-1.902 6.378-2.116v-2.614c-2.638.915-4.875 2.575-6.378 4.73z"/>
      <path d="M41.055 19.399c1.552-2.813 4.242-4.983 7.517-6.065V5.802s-14.296 4.86-13.993 11.891v11.889s.637-.217 1.639-.625c0-.38 0-.764.046-1.149.296-3.264 2.02-6.289 4.792-8.409z"/>
      <path d="M39.695 23.815c.075-.825.243-1.64.5-2.434-1.726 1.831-2.772 4.103-2.989 6.497-.021.226-.032.452-.038.685a43.581 43.581 0 0 0 2.75-1.304 11.103 11.103 0 0 1-.222-3.443zM40.264 23.858a10.594 10.594 0 0 0 .177 3.117c3.906-2.104 8.294-5.355 8.125-9.284v-.342c-2.791.281-5.401 1.379-7.431 3.126a10.75 10.75 0 0 0-.871 3.383z"/>
    </symbol>
    <symbol id="icon-Logo4" viewBox="0 0 59 32">
      <path d="M13.759 12.296h-.002c-1.363 0-2.468.996-2.468 2.225v.002c0 1.229 1.105 2.225 2.468 2.225h.002c1.363 0 2.468-.996 2.468-2.225v-.002c0-1.229-1.105-2.225-2.468-2.225zM31.978 11.585c-.004-1.707-.758-3.343-2.096-4.551s-3.153-1.887-5.047-1.891c-1.894.003-3.709.683-5.049 1.89s-2.094 2.844-2.098 4.552v9.414s14.288-1.435 14.289-9.412v-.001zM6.286 24.088c.003 1.188.528 2.326 1.46 3.166s2.194 1.314 3.511 1.317c1.317-.003 2.579-.477 3.511-1.317s1.456-1.978 1.46-3.165v-6.55s-9.942.999-9.942 6.549zm4.971 1.174c-.258 0-.509-.069-.723-.198s-.381-.312-.479-.527-.124-.45-.074-.678c.05-.228.174-.437.356-.601s.414-.276.666-.321c.252-.045.514-.022.752.067s.441.239.584.432a1.093 1.093 0 0 1 .121 1.103 1.164 1.164 0 0 1-.282.382c-.121.109-.265.196-.423.256s-.328.09-.499.09v-.004zM20.348 23.151v2.438h-.502v-2.438h.502zm.971 1.042v.392h-1.108v-.392h1.108zm.117-1.042v.393h-1.225v-.393h1.225zm2.294 1.162v.116c0 .185-.025.352-.075.499s-.121.273-.213.377a.919.919 0 0 1-.328.236 1.039 1.039 0 0 1-.42.082c-.153 0-.293-.027-.42-.082a.946.946 0 0 1-.328-.236 1.09 1.09 0 0 1-.216-.377 1.548 1.548 0 0 1-.075-.499v-.116c0-.186.025-.353.075-.499.05-.147.121-.273.213-.377a.938.938 0 0 1 .328-.238c.127-.055.267-.082.42-.082.154 0 .294.027.42.082a.912.912 0 0 1 .328.238c.093.104.164.229.214.377.051.146.077.312.077.499zm-.508.116v-.119c0-.13-.012-.243-.035-.342s-.058-.181-.104-.248a.46.46 0 0 0-.393-.203.458.458 0 0 0-.392.203c-.045.067-.079.15-.102.248s-.035.212-.035.342v.119c0 .128.012.242.035.341a.744.744 0 0 0 .104.249c.046.067.102.118.167.152s.141.052.226.052a.454.454 0 0 0 .392-.204.764.764 0 0 0 .102-.249c.023-.099.035-.213.035-.341zm2.138.522a.326.326 0 0 0-.02-.117.221.221 0 0 0-.07-.097c-.035-.03-.083-.06-.146-.089s-.143-.059-.243-.09a3.168 3.168 0 0 1-.315-.121 1.28 1.28 0 0 1-.261-.156.688.688 0 0 1-.177-.209.58.58 0 0 1-.064-.276c0-.102.022-.194.067-.276a.63.63 0 0 1 .188-.214.88.88 0 0 1 .285-.139 1.3 1.3 0 0 1 .363-.049c.18 0 .337.032.47.097s.238.154.311.266a.683.683 0 0 1 .112.387h-.499a.382.382 0 0 0-.045-.188.304.304 0 0 0-.134-.129.48.48 0 0 0-.224-.047.518.518 0 0 0-.218.04.297.297 0 0 0-.131.105.262.262 0 0 0-.044.147c0 .041.01.079.03.112.021.034.052.065.094.094s.092.056.152.082c.06.026.13.051.209.075.133.04.249.085.35.136.102.05.186.107.254.169a.624.624 0 0 1 .206.483c0 .106-.021.201-.062.285s-.101.155-.179.213c-.078.058-.171.102-.28.132s-.229.045-.363.045a1.4 1.4 0 0 1-.357-.047 1.072 1.072 0 0 1-.32-.146c-.095-.065-.171-.147-.228-.248s-.085-.219-.085-.357h.504c0 .076.012.14.035.192s.056.095.099.127a.426.426 0 0 0 .154.07c.06.015.126.022.198.022a.527.527 0 0 0 .214-.037.272.272 0 0 0 .126-.102.268.268 0 0 0 .042-.147zm1.934-1.8v2.438h-.501v-2.438h.501zm.75 0v.393h-1.989v-.393h1.989zm1.922 2.046v.392h-1.297v-.392h1.297zm-1.134-2.046v2.438h-.502v-2.438h.502zm.965.993v.382h-1.128v-.382h1.128zm.167-.993v.393h-1.296v-.393h1.296zm.295 0h.909c.186 0 .346.028.48.084.135.056.239.138.311.248s.109.244.109.403a.773.773 0 0 1-.067.337.63.63 0 0 1-.186.233.965.965 0 0 1-.28.147l-.159.084h-.79l-.003-.392h.588c.088 0 .161-.016.219-.047s.102-.075.131-.131a.403.403 0 0 0 .045-.194c0-.078-.015-.146-.044-.203s-.073-.1-.132-.131-.133-.045-.223-.045h-.407v2.044h-.502V23.15zm1.362 2.438-.556-1.086.531-.003.562 1.066v.023h-.537zm2.637-.869h-.621v-.392h.621a.51.51 0 0 0 .234-.047c.06-.032.104-.077.132-.134s.042-.121.042-.192c0-.073-.014-.14-.042-.203s-.072-.113-.132-.151-.138-.057-.234-.057h-.447v2.044h-.502V23.15h.949c.191 0 .354.035.49.104a.742.742 0 0 1 .424.696c0 .157-.036.294-.109.408s-.177.204-.315.266c-.136.062-.3.094-.49.094zm2.896.477v.392h-1.297v-.392h1.297zm-1.133-2.046v2.438h-.502v-2.438h.502zm.964.993v.382h-1.128v-.382h1.128zm.168-.993v.393h-1.296v-.393h1.296zm1.418 0v2.438h-.501v-2.438h.501zm.75 0v.393h-1.989v-.393h1.989zm1.921 2.046v.392h-1.297v-.392h1.297zm-1.133-2.046v2.438h-.502v-2.438h.502zm.964.993v.382h-1.128v-.382h1.128zm.168-.993v.393h-1.296v-.393h1.296zm.294 0h.909c.186 0 .347.028.48.084.135.056.239.138.311.248s.109.244.109.403a.773.773 0 0 1-.067.337.63.63 0 0 1-.186.233.965.965 0 0 1-.28.147l-.159.084h-.79l-.003-.392h.588c.088 0 .161-.016.219-.047s.102-.075.131-.131a.403.403 0 0 0 .045-.194c0-.078-.014-.146-.044-.203s-.073-.1-.132-.131a.489.489 0 0 0-.223-.045h-.407v2.044h-.502V23.15zm1.363 2.438-.556-1.086.531-.003.563 1.066v.023h-.537zm2.103-.638a.326.326 0 0 0-.02-.117.221.221 0 0 0-.07-.097c-.035-.03-.083-.06-.146-.089s-.143-.059-.243-.09a3.076 3.076 0 0 1-.315-.121 1.28 1.28 0 0 1-.261-.156.58.58 0 0 1-.242-.485c0-.102.022-.194.067-.276a.63.63 0 0 1 .188-.214.88.88 0 0 1 .285-.139c.111-.032.232-.049.363-.049.18 0 .337.032.47.097s.238.154.311.266a.683.683 0 0 1 .112.387h-.499a.382.382 0 0 0-.045-.188.304.304 0 0 0-.134-.129.48.48 0 0 0-.224-.047.518.518 0 0 0-.218.04.297.297 0 0 0-.131.105.262.262 0 0 0-.044.147c0 .041.01.079.03.112.021.034.052.065.094.094s.092.056.152.082c.06.026.13.051.209.075.133.04.249.085.35.136.102.05.186.107.254.169a.624.624 0 0 1 .206.483c0 .106-.021.201-.062.285s-.101.155-.179.213c-.078.058-.171.102-.28.132s-.229.045-.363.045a1.4 1.4 0 0 1-.357-.047 1.072 1.072 0 0 1-.32-.146c-.095-.065-.171-.147-.228-.248s-.085-.219-.085-.357h.504c0 .076.012.14.035.192s.056.095.099.127a.426.426 0 0 0 .154.07c.06.015.126.022.198.022a.527.527 0 0 0 .214-.037.272.272 0 0 0 .126-.102.268.268 0 0 0 .042-.147z"/>
    </symbol>
    <symbol id="icon-Logo3" viewBox="0 0 59 32">
      <path d="M21.034 28.128c.009 0 .018.002.027.005s.016.008.022.014l.126.119a1.034 1.034 0 0 1-.355.225 1.4 1.4 0 0 1-.503.081 1.348 1.348 0 0 1-.473-.076 1.044 1.044 0 0 1-.357-.213.935.935 0 0 1-.23-.329 1.08 1.08 0 0 1-.08-.422 1.006 1.006 0 0 1 .087-.423.99.99 0 0 1 .244-.329 1.14 1.14 0 0 1 .379-.214c.155-.051.321-.077.487-.076.155-.003.309.02.453.069.125.046.24.111.339.19l-.106.127a.087.087 0 0 1-.027.023.07.07 0 0 1-.043.009.107.107 0 0 1-.046-.014l-.057-.034-.079-.043a.9.9 0 0 0-.25-.076 1.181 1.181 0 0 0-.538.043.73.73 0 0 0-.452.412.857.857 0 0 0-.065.334c-.002.116.02.23.065.34a.73.73 0 0 0 .437.408.96.96 0 0 0 .325.054c.064.001.129-.003.192-.011a.784.784 0 0 0 .417-.174.105.105 0 0 1 .06-.022zM24.678 27.532c.002.143-.027.285-.085.419-.051.122-.132.233-.238.326s-.232.166-.373.214c-.309.101-.65.101-.959 0a1.127 1.127 0 0 1-.371-.214.956.956 0 0 1-.24-.329 1.074 1.074 0 0 1 0-.84.982.982 0 0 1 .24-.33c.106-.09.232-.16.371-.206.308-.102.651-.102.959 0 .14.049.267.122.372.214a.958.958 0 0 1 .323.747zm-.331 0a.892.892 0 0 0-.06-.337.687.687 0 0 0-.436-.411 1.122 1.122 0 0 0-.697 0 .747.747 0 0 0-.267.159.678.678 0 0 0-.17.252.976.976 0 0 0 0 .674.703.703 0 0 0 .437.41c.225.072.472.072.697 0a.7.7 0 0 0 .436-.41.873.873 0 0 0 .06-.337zM27.164 27.885l.033.076.036-.076a.768.768 0 0 1 .041-.074l.806-1.252c.016-.022.03-.035.046-.039a.21.21 0 0 1 .066-.007h.238v2.036h-.282v-1.56a.41.41 0 0 1 0-.07l-.811 1.269c-.01.019-.027.035-.047.046s-.045.017-.069.017h-.046c-.025 0-.049-.006-.069-.017s-.037-.027-.047-.047l-.834-1.277V28.545h-.273v-2.032h.238a.21.21 0 0 1 .066.007c.02.008.035.022.044.039l.823 1.253c.016.023.03.047.041.073zM30.197 27.784v.763h-.316v-2.034h.704a1.57 1.57 0 0 1 .393.044.793.793 0 0 1 .278.127.53.53 0 0 1 .158.199.619.619 0 0 1 .054.26.56.56 0 0 1-.228.463.822.822 0 0 1-.279.135 1.347 1.347 0 0 1-.38.047l-.382-.005zm0-.218h.382a.907.907 0 0 0 .244-.031.554.554 0 0 0 .177-.088.38.38 0 0 0 .145-.306c.004-.057-.007-.113-.032-.166s-.062-.1-.11-.139a.69.69 0 0 0-.424-.109h-.382v.838zM34.437 28.549h-.249a.116.116 0 0 1-.11-.066l-.215-.492h-1.077l-.222.492a.115.115 0 0 1-.11.066h-.249l.946-2.036h.328l.959 2.036zm-1.562-.756h.89l-.375-.829a1.33 1.33 0 0 1-.071-.191l-.036.106a.95.95 0 0 1-.035.086l-.372.828zM35.8 26.522a.131.131 0 0 1 .047.036l1.38 1.535v-1.58h.282v2.036h-.158a.16.16 0 0 1-.065-.012.161.161 0 0 1-.05-.038l-1.379-1.534a.41.41 0 0 1 0 .07v1.514h-.282v-2.036h.167a.18.18 0 0 1 .057.009zM39.834 27.739v.809h-.316v-.809l-.872-1.226h.282a.116.116 0 0 1 .068.018.187.187 0 0 1 .043.046l.546.791c.022.034.041.065.057.094s.028.058.039.086l.041-.088a.624.624 0 0 1 .054-.093l.538-.797a.208.208 0 0 1 .041-.043.107.107 0 0 1 .068-.02h.285l-.874 1.232zM27.008 23.095c.137.015.276.027.416.038 2.128-.813 3.929-2.145 5.176-3.828s1.887-3.643 1.838-5.634l-2.346-2.004c.477 2.12.254 4.313-.644 6.331s-2.436 3.783-4.441 5.098z"/>
      <path d="m26.17 23.002.063.011c2.143-1.31 3.776-3.138 4.69-5.25s1.064-4.408.433-6.594l-3.341-2.854c1.351 2.346 1.895 4.972 1.568 7.572s-1.511 5.067-3.414 7.115zM37.5 16.024c-.568 2.188-1.946 4.162-3.931 5.628-.58.43-1.205.814-1.868 1.145 1.616-.406 3.102-1.123 4.342-2.097s2.202-2.178 2.812-3.52L37.5 16.024z"/>
      <path d="m36.968 15.702-1.929-1.648c-.037 1.879-.662 3.716-1.811 5.318s-2.779 2.914-4.721 3.796h.009c.433 0 .865-.022 1.295-.066 1.815-.633 3.418-1.64 4.667-2.931s2.104-2.826 2.489-4.469zM26.449 7.112l-2.301-1.969c-2.057.679-3.827 1.873-5.077 3.426s-1.922 3.392-1.928 5.276c.008 2.082.828 4.103 2.331 5.742s3.603 2.803 5.967 3.308c2.111-2.197 3.346-4.912 3.528-7.75s-.701-5.652-2.52-8.032zM42.286 15.399c-.008-2.47-1.161-4.838-3.205-6.585s-4.815-2.731-7.707-2.739a12.47 12.47 0 0 0-3.907.621l14.09 12.039a8.056 8.056 0 0 0 .729-3.337z"/>
    </symbol>
    <symbol id="icon-Logo2" viewBox="0 0 59 32">
      <path d="M28.636 3.391h-.078c-.12-.007-.24-.01-.36-.013h-.26c-.227 0-.458.006-.688.017a.451.451 0 0 0-.052 0 16.148 16.148 0 0 0-6.009 1.533l-.247.119v12.652l.578-.196a22.494 22.494 0 0 1 1.607-.477 19.624 19.624 0 0 1 4.626-.615v1.662c-.207.002-.408.007-.609.017h-.048a18.54 18.54 0 0 0-3.559.546c-1.477.37-2.901.925-4.24 1.652V4.061a16.979 16.979 0 0 1 4.448-1.809 17.043 17.043 0 0 1 4.192-.541h.244c.292.007.577.02.844.041.705.049 1.404.161 2.089.333v1.636a12.928 12.928 0 0 0-2.024-.305l-.041-.004c-.141-.012-.282-.024-.414-.024zm2.88 1.673c.363.028.739.041 1.119.041a17.95 17.95 0 0 0 4.407-.565 18.14 18.14 0 0 0 4.238-1.654v15.938a17.068 17.068 0 0 1-4.449 1.809c-1.37.352-2.778.533-4.192.539a12.76 12.76 0 0 1-3.18-.375V4.756c.246.057.499.109.756.153.422.071.867.123 1.301.155zm8.111.123-.578.195c-.532.179-1.068.339-1.608.481a19.61 19.61 0 0 1-4.804.616c-.377 0-.724-.01-1.06-.032l-.461-.03v13.015l.396.035c.367.032.746.048 1.128.048a15.335 15.335 0 0 0 3.783-.49 15.84 15.84 0 0 0 2.956-1.062l.247-.119V5.188zM20.421 25.836a.856.856 0 0 0-.643-.26.953.953 0 0 0-.372.07.828.828 0 0 0-.475.481.957.957 0 0 0-.067.359v2.168a1.03 1.03 0 0 0 .085.445c.051.111.125.21.217.291a.752.752 0 0 0 .298.154c.105.03.214.045.324.045a.906.906 0 0 0 .828-.568.873.873 0 0 0 .069-.346v-.243h-.567v.193a.506.506 0 0 1-.033.193.35.35 0 0 1-.082.122.33.33 0 0 1-.119.062.367.367 0 0 1-.119.02.283.283 0 0 1-.266-.116.512.512 0 0 1-.075-.291v-2.021a.686.686 0 0 1 .069-.324.284.284 0 0 1 .277-.13c.049-.002.097.008.141.03s.082.053.112.092a.461.461 0 0 1 .094.291v.187h.561v-.221a1.022 1.022 0 0 0-.069-.379.893.893 0 0 0-.189-.305zM23.788 25.811a1.005 1.005 0 0 0-.645-.238.976.976 0 0 0-.637.238.886.886 0 0 0-.22.304 1.01 1.01 0 0 0-.082.42v2.079c-.004.146.024.292.082.426a.838.838 0 0 0 .22.291c.087.08.188.143.299.183a.976.976 0 0 0 .982-.183.893.893 0 0 0 .296-.717v-2.079a1.01 1.01 0 0 0-.082-.42.927.927 0 0 0-.214-.304zm-.265 2.803a.377.377 0 0 1-.112.301.414.414 0 0 1-.534 0 .38.38 0 0 1-.112-.301v-2.079a.377.377 0 0 1 .112-.301.414.414 0 0 1 .534 0 .38.38 0 0 1 .112.301v2.079zM28.21 29.543v-3.936h-.545l-.716 2.084h-.01l-.721-2.084h-.539v3.936h.562v-2.395h.01l.551 1.693h.28l.555-1.693h.01v2.395h.562zM31.405 25.882a.785.785 0 0 0-.318-.215 1.254 1.254 0 0 0-.408-.061h-.835v3.936h.561v-1.537h.289c.175.008.349-.029.506-.108a.817.817 0 0 0 .308-.301.94.94 0 0 0 .129-.343c.022-.148.032-.298.03-.448a2.212 2.212 0 0 0-.055-.562.828.828 0 0 0-.207-.362zm-.289 1.2a.49.49 0 0 1-.052.205.313.313 0 0 1-.145.138.574.574 0 0 1-.265.049h-.256v-1.338h.289a.55.55 0 0 1 .253.049.32.32 0 0 1 .132.145.572.572 0 0 1 .049.219v.262c0 .092.006.186 0 .27h-.006zM34.062 25.606h-.46l-.867 3.936h.561l.165-.846h.765l.165.846h.561l-.889-3.936zm-.518 2.555.276-1.427h.01l.275 1.427h-.561zM37.686 27.978h-.01l-.847-2.371h-.539v3.936h.561v-2.367h.012l.857 2.367h.528v-3.936h-.561v2.371zM41.113 25.606l-.451 1.565h-.012l-.451-1.565h-.594l.77 2.273v1.664h.561v-1.664l.77-2.273h-.594zM18.857 30.654h.27v.759h.184v-.759h.269v-.155h-.723v.155zM21.13 30.498l-.354.914h.195l.075-.208h.364l.078.208h.2l-.363-.914h-.195zm-.029.553.124-.339.124.339H21.1zM23.376 31.076h.211v.118a.357.357 0 0 1-.217.077.23.23 0 0 1-.193-.087.39.39 0 0 1-.068-.238c0-.203.088-.305.263-.305a.194.194 0 0 1 .207.145l.181-.035c-.039-.179-.168-.269-.387-.269a.458.458 0 0 0-.319.118.457.457 0 0 0-.131.351.498.498 0 0 0 .117.343.446.446 0 0 0 .347.134.548.548 0 0 0 .387-.145v-.36h-.396v.154zM25.67 30.498h-.185v.914h.64v-.155h-.455v-.759zM27.61 30.498h-.185v.914h.185v-.914zM29.507 31.109l-.374-.61h-.179v.914h.172v-.597l.367.597h.184v-.914h-.169v.61zM31.221 31.01h.455v-.155h-.455v-.201h.49v-.155h-.675v.914h.694v-.155h-.509v-.247zM35.378 30.859h-.36v-.36h-.184v.914h.184v-.4h.36v.4h.184v-.914h-.184v.36zM37.103 31.01h.457v-.155h-.457v-.201h.492v-.155h-.675v.914h.692v-.155h-.509v-.247zM39.442 31.01c.159-.025.24-.109.24-.254a.213.213 0 0 0-.09-.203.516.516 0 0 0-.267-.054h-.387v.914h.184v-.382h.036a.262.262 0 0 1 .114.02c.027.017.049.04.065.067l.2.291h.22l-.111-.179a.642.642 0 0 0-.202-.219zm-.185-.126h-.136v-.23h.145a.476.476 0 0 1 .187.022.117.117 0 0 1 .04.095c-.001.018-.006.035-.014.051s-.02.029-.035.04a.536.536 0 0 1-.187.022zM41.206 31.01h.455v-.155h-.455v-.201h.492v-.155h-.676v.914h.694v-.155h-.509v-.247z"/>
    </symbol>
    <symbol id="icon-Logo1" viewBox="0 0 59 32">
      <path d="m21.714 4 4.004 3.815-7.433-.004v18.51h19.429v-7.077l4 3.811V4.001h-20zm15.824 14.796L26.184 7.979h11.354v10.817zm-3.525 4.817H21.36V11.164h.894V22.77h11.759v.843zm-10.13 6.136-.472-.97h-.389l.684 1.284v.748h.353v-.748l.684-1.284h-.388l-.472.97zm1.739-.969h.084l.767 2.031h-.368l-.164-.476h-.786l-.164.476h-.367l.765-2.031h.234zm-.373 1.278h.595l-.298-.862-.297.862zm2.455-.337-.044-.057c-.052-.069-.093-.135-.121-.2s-.043-.132-.043-.201c0-.106.022-.197.066-.273s.106-.135.186-.176a.593.593 0 0 1 .28-.063c.103 0 .192.021.266.063a.44.44 0 0 1 .103.707.963.963 0 0 1-.142.124l-.141.103.402.475a.826.826 0 0 0 .088-.379h.29c0 .099-.01.192-.029.28a.878.878 0 0 1-.149.335l.298.351h-.389l-.118-.139a.796.796 0 0 1-.208.114.938.938 0 0 1-.315.053c-.135 0-.252-.025-.35-.074s-.175-.117-.229-.204a.56.56 0 0 1-.08-.297c0-.083.017-.155.052-.218s.081-.122.141-.176c.055-.05.118-.1.188-.15zm.167.204-.042.031c-.049.04-.086.079-.11.116a.322.322 0 0 0-.057.181c0 .059.013.113.038.162s.064.087.113.116a.37.37 0 0 0 .183.042.514.514 0 0 0 .328-.116l-.452-.532zm.08-.371.125-.084c.059-.039.1-.077.126-.114s.038-.086.038-.142c0-.048-.019-.093-.056-.134s-.09-.061-.158-.061a.204.204 0 0 0-.194.121.284.284 0 0 0-.024.119c0 .042.011.085.032.13s.051.09.088.138l.023.029zm3.554.596h-.349c-.01.088-.032.163-.064.225s-.079.106-.141.138a.522.522 0 0 1-.241.047c-.082 0-.152-.016-.211-.049s-.107-.079-.145-.138c-.037-.059-.065-.131-.084-.213s-.026-.177-.026-.279v-.172c0-.108.01-.204.029-.287s.051-.156.091-.213c.04-.058.09-.101.149-.131s.129-.045.209-.045c.098 0 .177.017.237.05s.106.08.137.142a.628.628 0 0 1 .061.225h.349c-.014-.136-.052-.256-.114-.361s-.148-.187-.259-.247a.857.857 0 0 0-.41-.089c-.127 0-.242.022-.345.067s-.188.109-.261.194c-.073.084-.128.185-.167.303s-.057.25-.057.396v.169c0 .146.019.278.056.396s.093.219.165.303c.072.083.158.147.258.192s.213.067.339.067c.164 0 .303-.03.417-.089s.203-.141.266-.244a.82.82 0 0 0 .112-.356zm1.938-.299v-.112c0-.153-.02-.291-.061-.412s-.097-.226-.172-.311c-.074-.087-.163-.152-.266-.197s-.218-.068-.343-.068c-.125 0-.239.023-.342.068s-.191.11-.266.197c-.074.086-.132.189-.173.311s-.061.258-.061.412v.112c0 .154.02.291.061.413s.1.226.176.311a.767.767 0 0 0 .608.264c.126 0 .24-.022.343-.067s.192-.111.265-.197c.074-.086.132-.189.172-.311s.06-.259.06-.413zm-.351-.114v.114c0 .113-.011.214-.033.301s-.053.161-.095.222c-.042.059-.093.105-.153.135s-.13.045-.208.045c-.077 0-.146-.015-.206-.045s-.113-.076-.156-.135c-.043-.06-.075-.134-.098-.222s-.033-.188-.033-.301v-.114c0-.113.011-.213.033-.3s.054-.16.096-.219a.421.421 0 0 1 .361-.18c.077 0 .147.015.208.046.061.03.113.074.155.134s.075.132.096.219c.022.087.033.186.033.3z"/>
    </symbol>
    <symbol id="icon-linkedin" viewBox="0 0 32 32">
      <path d="M31.992 32v-.001H32V20.263c0-5.741-1.236-10.164-7.948-10.164-3.227 0-5.392 1.771-6.276 3.449h-.093v-2.913h-6.364v21.364h6.627V21.42c0-2.785.528-5.479 3.977-5.479 3.399 0 3.449 3.179 3.449 5.657v10.401h6.62zM.528 10.636h6.635V32H.528V10.636zM3.843 0C1.722 0 0 1.721 0 3.843s1.721 3.879 3.843 3.879c2.121 0 3.843-1.757 3.843-3.879A3.846 3.846 0 0 0 3.843 0z"/>
    </symbol>
    <symbol id="icon-facebook" viewBox="0 0 32 32">
      <path d="M21.329 5.313h2.921V.225C23.746.156 22.013 0 19.994 0c-4.212 0-7.097 2.649-7.097 7.519V12H8.249v5.688h4.648V32h5.699V17.689h4.46l.708-5.688h-5.169V8.082c.001-1.644.444-2.769 2.735-2.769z"/>
    </symbol>
    <symbol id="icon-twitter" viewBox="0 0 32 32">
      <path d="M32 6.078c-1.19.522-2.458.868-3.78 1.036a6.523 6.523 0 0 0 2.886-3.626 13.11 13.11 0 0 1-4.16 1.588A6.574 6.574 0 0 0 22.154 3c-3.632 0-6.556 2.948-6.556 6.562 0 .52.044 1.02.152 1.496-5.454-.266-10.28-2.88-13.522-6.862a6.605 6.605 0 0 0-.898 3.316 6.57 6.57 0 0 0 2.914 5.452 6.479 6.479 0 0 1-2.964-.808v.072c0 3.188 2.274 5.836 5.256 6.446a6.548 6.548 0 0 1-1.72.216 5.8 5.8 0 0 1-1.242-.112c.85 2.598 3.262 4.508 6.13 4.57a13.182 13.182 0 0 1-8.134 2.798c-.538 0-1.054-.024-1.57-.09A18.469 18.469 0 0 0 10.064 29c12.072 0 18.672-10 18.672-18.668 0-.29-.01-.57-.024-.848A13.087 13.087 0 0 0 32 6.078z"/>
    </symbol>
    <symbol id="icon-instagram" viewBox="0 0 32 32">
      <path d="M31.969 9.408c-.075-1.7-.35-2.869-.744-3.882a7.803 7.803 0 0 0-1.85-2.838A7.867 7.867 0 0 0 26.543.844C25.524.45 24.361.175 22.661.1 20.948.019 20.404 0 16.06 0s-4.888.019-6.595.094c-1.7.075-2.869.35-3.882.744a7.803 7.803 0 0 0-2.838 1.85A7.867 7.867 0 0 0 .901 5.52C.507 6.539.232 7.702.157 9.402c-.081 1.713-.1 2.257-.1 6.601s.019 4.888.094 6.595c.075 1.7.35 2.869.744 3.882a7.895 7.895 0 0 0 1.85 2.838 7.867 7.867 0 0 0 2.832 1.844c1.019.394 2.182.669 3.882.744 1.706.075 2.25.094 6.595.094s4.888-.018 6.595-.094c1.7-.075 2.869-.35 3.882-.744a8.181 8.181 0 0 0 4.682-4.682c.394-1.019.669-2.182.744-3.882.075-1.707.094-2.251.094-6.595s-.006-4.888-.081-6.595zm-2.882 13.065c-.069 1.563-.331 2.407-.55 2.969a5.307 5.307 0 0 1-3.038 3.038c-.563.219-1.413.481-2.969.55-1.688.075-2.194.094-6.464.094s-4.782-.018-6.464-.094c-1.563-.069-2.407-.331-2.969-.55a4.926 4.926 0 0 1-1.838-1.194 4.974 4.974 0 0 1-1.194-1.838c-.219-.563-.481-1.413-.55-2.969-.075-1.688-.094-2.194-.094-6.464s.019-4.782.094-6.464c.069-1.563.331-2.407.55-2.969a4.868 4.868 0 0 1 1.2-1.838A4.974 4.974 0 0 1 6.639 3.55c.563-.219 1.413-.481 2.969-.55 1.688-.075 2.194-.094 6.464-.094 4.276 0 4.782.019 6.464.094 1.563.069 2.407.331 2.969.55a4.914 4.914 0 0 1 1.838 1.194 4.974 4.974 0 0 1 1.194 1.838c.219.563.481 1.413.55 2.969.075 1.688.094 2.194.094 6.464s-.019 4.77-.094 6.457z"/>
      <path d="M16.059 7.782c-4.538 0-8.22 3.682-8.22 8.22s3.682 8.22 8.22 8.22 8.22-3.682 8.22-8.22-3.682-8.22-8.22-8.22zm0 13.553a5.333 5.333 0 0 1 0-10.664 5.333 5.333 0 0 1 0 10.664zM26.524 7.457a1.919 1.919 0 1 1-3.838 0 1.919 1.919 0 0 1 3.838 0z"/>
    </symbol>
    <symbol id="icon-astronaut" viewBox="0 0 32 32">
      <path fill="#4d5ae5" d="M31.974 4.524a.534.534 0 0 0-.43-.363l-1.91-.278-.855-1.731c-.179-.365-.777-.365-.956 0l-.855 1.731-1.91.278a.535.535 0 0 0-.296.91l1.383 1.348-.326 1.903c-.034.2.048.402.212.522a.53.53 0 0 0 .562.04l1.709-.899 1.709.899a.536.536 0 0 0 .775-.563l-.326-1.903 1.383-1.348a.536.536 0 0 0 .135-.547zm-2.463 1.327a.534.534 0 0 0-.153.472l.191 1.114-1-.526a.533.533 0 0 0-.498 0l-1.001.526.191-1.114a.534.534 0 0 0-.153-.472l-.81-.789 1.119-.163a.532.532 0 0 0 .402-.292l.5-1.013.5 1.013a.535.535 0 0 0 .402.292l1.119.163-.809.789zM26.134 20.522h-1.067v1.067h1.067v-1.067zM26.134 22.656h-1.067v1.067h1.067v-1.067zM27.2 21.589h-1.067v1.067H27.2v-1.067zM25.067 21.589H24v1.067h1.067v-1.067zM22.4 26.389h-1.067v1.067H22.4v-1.067zM22.4 28.522h-1.067v1.067H22.4v-1.067zM23.467 27.456H22.4v1.067h1.067v-1.067zM21.333 27.456h-1.067v1.067h1.067v-1.067zM16 24.256h-1.067v1.067H16v-1.067zM16 26.389h-1.067v1.067H16v-1.067zM17.067 25.322H16v1.067h1.067v-1.067zM14.933 25.322h-1.067v1.067h1.067v-1.067zM5.867 6.122H4.8v1.067h1.067V6.122zM5.867 8.255H4.8v1.067h1.067V8.255z" style="fill:var(--color1, #4d5ae5)"/>
      <path fill="#4d5ae5" d="M6.933 7.189H5.866v1.067h1.067V7.189zM4.8 7.189H3.733v1.067H4.8V7.189z" style="fill:var(--color1, #4d5ae5)"/>
      <path fill="#2e2f42" d="M24.715 14.159a1.775 1.775 0 0 0-1.188-.705 1.778 1.778 0 0 0-1.34.352l-1.252.96-1.898 1.417-1.358-.541c2.421-1.086 4.114-3.508 4.114-6.32 0-3.823-3.123-6.933-6.961-6.933s-6.961 3.11-6.961 6.933a6.86 6.86 0 0 0 1.12 3.758l-2.764-.024h-.005c-.009 0-.015.004-.023.005a.515.515 0 0 0-.155.031l-.038.013c-.006.003-.013.003-.019.006l-3.233 1.596-.001.001-1.893.911a.397.397 0 0 0-.063.035 1.779 1.779 0 0 0-.598 2.295c.22.429.595.745 1.056.889a1.776 1.776 0 0 0 1.378-.128l1.388-.738 2.264-1.169 1.357-.008L2.2 22.211l-.002.001-1.339 1.333c-.316.315-.49.732-.49 1.178s.174.863.49 1.179c.325.323.752.485 1.179.485s.854-.162 1.18-.485l1.314-1.309 1.741-1.3.901.897-1.762 1.754-.002.001-1.339 1.333c-.316.315-.49.732-.49 1.178s.174.863.49 1.179c.325.323.753.485 1.18.485s.855-.162 1.18-.485l3.482-3.467.001-.002 1.01-1-.004-.004c.006-.006.015-.009.022-.015l5.166-5.658 3.471.494a.52.52 0 0 0 .262-.033c.018-.006.033-.015.05-.023.019-.01.039-.015.058-.027l3.213-2.133c.012-.008.018-.021.029-.029.013-.01.029-.014.041-.026l1.271-1.191c.662-.62.753-1.635.212-2.362zM2.13 17.77a.714.714 0 0 1-.558.052.717.717 0 0 1-.213-1.26l1.314-.632.449 1.313-.992.527zm3.498-1.828-1.548.8-.439-1.283 2.027-1.001-.04 1.484zm15.099-6.62a5.79 5.79 0 0 1-.599 2.559l-4.181-1.899a1.863 1.863 0 0 0-.788-1.388l1.464-4.86c2.378.756 4.105 2.974 4.105 5.588zm-11.789 0c0-3.235 2.644-5.867 5.894-5.867.253 0 .5.021.745.052l-1.432 4.754c-.019-.001-.037-.006-.057-.006-1.033 0-1.873.837-1.873 1.867s.84 1.867 1.873 1.867c.694 0 1.294-.383 1.618-.945l3.862 1.755a5.894 5.894 0 0 1-4.737 2.39c-3.25 0-5.894-2.632-5.894-5.867zm5.956.8c0 .441-.362.8-.806.8s-.806-.359-.806-.8c0-.441.362-.8.806-.8s.806.359.806.8zM2.465 25.146a.608.608 0 0 1-.854.001.592.592 0 0 1 0-.844l.962-.958.851.848-.959.955zm3.214 3.734a.608.608 0 0 1-.855.001.592.592 0 0 1 0-.844l.963-.959.852.848-.96.955zm3.481-3.469-.002.001-1.765 1.76-.852-.848 1.763-1.755.002-.001c.04-.04.065-.088.09-.135.007-.014.02-.026.026-.04.017-.041.019-.085.026-.129.003-.025.014-.047.014-.073 0-.036-.013-.07-.02-.106-.006-.032-.006-.065-.019-.095a.55.55 0 0 0-.091-.138c-.01-.012-.014-.027-.025-.038h-.001l-.001-.002-1.607-1.6c-.017-.017-.039-.024-.058-.038a.507.507 0 0 0-.087-.058.515.515 0 0 0-.093-.033.507.507 0 0 0-.103-.02.5.5 0 0 0-.095.005.53.53 0 0 0-.104.02.477.477 0 0 0-.094.045c-.02.011-.042.015-.061.029L4.23 23.486l-.901-.897 2.399-2.386 4.361 4.289-.928.919zm6.819-7.017c-.015-.002-.03.004-.045.003a.556.556 0 0 0-.3.075.492.492 0 0 0-.083.061c-.013.011-.028.017-.04.029l-4.698 5.146-4.328-4.257 2.833-2.818a.534.534 0 0 0-.379-.911v-.001l-2.219.013.028-1.607 3.104.027a6.947 6.947 0 0 0 4.981 2.101c.437 0 .864-.045 1.279-.123.04.032.079.065.13.085l2.41.96.152.758.178.885-3.003-.427zm4.041.178-.313-1.558 1.446-1.08.947 1.257-2.08 1.381zm3.754-2.831-.838.785-.931-1.236.831-.637a.735.735 0 0 1 .543-.143.718.718 0 0 1 .48.284.713.713 0 0 1-.085.947z" style="fill:var(--color2, #2e2f42)"/>
      <path fill="#2e2f42" d="m13.602 18.544-2.143-2.133a.534.534 0 0 0-.753 0l-2.142 2.133a.537.537 0 0 0 0 .756l2.142 2.133a.536.536 0 0 0 .753 0l2.143-2.133a.535.535 0 0 0 0-.756zm-2.519 1.759-1.387-1.381 1.387-1.381 1.387 1.381-1.387 1.381zM17.164 5.071l-.258 1.036c.071.018 1.738.452 1.738 2.149h1.067c0-2.017-1.666-2.965-2.547-3.185zM19.711 9.322h-1.067v1.067h1.067V9.322z" style="fill:var(--color2, #2e2f42)"/>
    </symbol>
    <symbol id="icon-diagram" viewBox="0 0 32 32">
      <path fill="#4d5ae5" d="M14.926 14.965h1.066v4.798h-1.066v-4.797zM19.19 17.097h1.066v2.665H19.19v-2.665zM10.661 18.696h1.066v1.066h-1.066v-1.066zM7.463 18.163h1.066v1.599H7.463v-1.599z" style="fill:var(--color1, #4d5ae5)"/>
      <path fill="#2e2f42" d="M1.599 28.291h25.587a1.6 1.6 0 0 0 1.599-1.599V24.56a1.6 1.6 0 0 0-1.599-1.599h-.533V9.668L29.681 6.8a1.608 1.608 0 1 0-.746-.763L26.654 8.2V6.97a1.6 1.6 0 0 0-1.599-1.599H3.733A1.6 1.6 0 0 0 2.134 6.97v15.992h-.533a1.6 1.6 0 0 0-1.599 1.599v2.132a1.6 1.6 0 0 0 1.599 1.599zM30.384 4.837a.533.533 0 1 1 0 1.067.533.533 0 0 1 0-1.067zM3.198 6.969c0-.294.239-.533.533-.533h21.322c.294 0 .533.239.533.533v2.239l-1.066 1.013V8.035a.533.533 0 0 0-.533-.533H4.797a.533.533 0 0 0-.533.533v13.326c0 .294.239.533.533.533h19.19a.533.533 0 0 0 .533-.533v-9.674l1.066-1.01v12.284H3.198V6.969zm4.798 6.93a1.598 1.598 0 1 0 1.107 2.749l1.853.93a.532.532 0 0 0 .636-.123l3.939-4.431 3.872 2.901a.533.533 0 0 0 .686-.039l3.365-3.188v8.131H5.33V8.569h18.124v2.66l-3.771 3.572-3.904-2.927a.533.533 0 0 0-.718.072l-3.993 4.493-1.493-.746c.011-.064.018-.129.02-.193a1.6 1.6 0 0 0-1.599-1.599zm.533 1.599a.533.533 0 1 1-1.067 0 .533.533 0 0 1 1.067 0zm3.198 8.529h5.331v.533a.533.533 0 0 1-.533.533h-4.264a.533.533 0 0 1-.533-.533v-.533zm-10.661.533c0-.294.239-.533.533-.533h9.062v.533a1.6 1.6 0 0 0 1.599 1.599h4.264a1.6 1.6 0 0 0 1.599-1.599v-.533h9.062c.294 0 .533.239.533.533v2.132a.533.533 0 0 1-.533.533H1.598a.533.533 0 0 1-.533-.533V24.56z" style="fill:var(--color2, #2e2f42)"/>
    </symbol>
    <symbol id="icon-clock" viewBox="0 0 32 32">
      <path fill="#2e2f42" d="M31.297 15.301C31.295 6.849 24.442-.002 15.989 0S.686 6.855.688 15.308a15.304 15.304 0 0 0 10.649 14.576.662.662 0 0 0 .529-.065.637.637 0 0 0 .283-.356l3.865-12.25a1.912 1.912 0 1 0-.84-3.635l-5.106-5.107a.637.637 0 0 0-.902.902l5.103 5.109a1.876 1.876 0 0 0 .536 2.309l-3.683 11.673C3.844 25.783.118 17.71 2.799 10.432S13.553-.572 20.831 2.109c7.278 2.681 11.004 10.754 8.323 18.032a14.042 14.042 0 0 1-7.462 7.973l-.398-1.874a.637.637 0 0 0-1.049-.344l-3.837 3.426a.637.637 0 0 0 .231 1.084l4.899 1.564a.638.638 0 0 0 .819-.74l-.391-1.839a15.255 15.255 0 0 0 9.329-14.089zm-15.305-.637a.638.638 0 1 1 0 1.277.638.638 0 0 1 0-1.277zm2.101 14.864 2.184-1.948.603 2.84-2.787-.892z" style="fill:var(--color2, #2e2f42)"/>
      <path fill="#4d5ae5" d="M15.354 3.185V4.46a.638.638 0 1 0 1.276 0V3.185a.638.638 0 0 0-1.276 0zM3.876 14.664a.638.638 0 0 0 0 1.276h1.275a.638.638 0 1 0 0-1.276H3.876zM28.108 15.939a.638.638 0 1 0 0-1.276h-1.275a.638.638 0 0 0 0 1.276h1.275z" style="fill:var(--color1, #4d5ae5)"/>
    </symbol>
    <symbol id="icon-antenna" viewBox="0 0 32 32">
      <path fill="#2e2f42" d="m30.773 22.098-8.443-8.505.937-4.615c.242.094.499.144.758.146h.006a2.159 2.159 0 1 0-2.008-1.435l-4.96.605L8.972.161a.534.534 0 0 0-.377-.16.532.532 0 0 0-.373.155L6.709 1.66a.534.534 0 0 0 0 .754l.814.826a14.943 14.943 0 0 0 2.519 17.663.513.513 0 0 0 .146.098c-.034.18-.051.364-.052.547v6.187h-6.4a2.67 2.67 0 0 0-2.667 2.667v1.067c0 .295.239.533.533.533h24.533a.533.533 0 0 0 .533-.533v-1.067a2.67 2.67 0 0 0-2.667-2.667h-6.4v-2.742a15.09 15.09 0 0 0 3.049.32 14.854 14.854 0 0 0 7.04-1.783l.818.823a.534.534 0 0 0 .377.16.532.532 0 0 0 .373-.155l1.513-1.504a.534.534 0 0 0 0-.754zM23.28 6.233a1.067 1.067 0 1 1 .753 1.822h-.003a1.067 1.067 0 0 1-.747-1.823h-.002zm-1.256 3.505-.598 2.946-1.175-1.182 1.774-1.763zm-.605-.902-1.92 1.909-1.485-1.493 3.405-.415zM24.004 28.8a1.6 1.6 0 0 1 1.6 1.6v.533H2.137V30.4a1.6 1.6 0 0 1 1.6-1.6h20.267zm-7.467-2.133v1.067h-5.333v-1.067h5.333zM11.204 25.6v-4.053c0-1.294 1.196-2.347 2.667-2.347s2.667 1.053 2.667 2.347V25.6h-5.333zm6.4-1.696v-2.357c0-1.882-1.675-3.413-3.733-3.413a3.8 3.8 0 0 0-3.281 1.786A13.87 13.87 0 0 1 8.311 4.033l18.602 18.708a13.818 13.818 0 0 1-9.309 1.163zm11.289-.684L7.836 2.039l.755-.752 7.935 7.98c.004 0 .006.007.01.01l13.115 13.191-.757.752z" style="fill:var(--color2, #2e2f42)"/>
      <path fill="#4d5ae5" d="M13.876 20.267h-.005a1.6 1.6 0 1 0-.004 3.2h.005a1.6 1.6 0 1 0 .004-3.2zm.373 1.978a.534.534 0 0 1-.752-.756.534.534 0 0 1 .373-.155.534.534 0 0 1 .374.911h.005z" style="fill:var(--color1, #4d5ae5)"/>
    </symbol>
    <symbol id="icon-envelop" viewBox="0 0 32 32">
      <path d="M29 4H3C1.35 4 0 5.35 0 7v20c0 1.65 1.35 3 3 3h26c1.65 0 3-1.35 3-3V7c0-1.65-1.35-3-3-3zM12.461 17.199 4 23.789V8.113l8.461 9.086zM5.512 8h20.976L16 15.875 5.512 8zm7.278 9.553L16 21l3.21-3.447L25.79 26H6.211l6.58-8.447zm6.749-.354L28 8.113v15.676l-8.461-6.59z"/>
    </symbol>
    <symbol id="icon-mobile" viewBox="0 0 32 32">
      <path d="M23 0H9C7.35 0 6 1.35 6 3v26c0 1.65 1.35 3 3 3h14c1.65 0 3-1.35 3-3V3c0-1.65-1.35-3-3-3zM12 1.5h8v1h-8v-1zM16 30a2 2 0 1 1-.001-3.999A2 2 0 0 1 16 30zm8-6H8V4h16v20z"/>
    </symbol>
    <symbol id="icon-close-modal" viewBox="0 0 32 32">
      <path d="M32 3.223l-3.223-3.223-12.777 12.777-12.777-12.777-3.223 3.223 12.777 12.777-12.777 12.777 3.223 3.223 12.777-12.777 12.777 12.777 3.223-3.223-12.777-12.777 12.777-12.777z"></path>
</symbol>
    <symbol id="icon-telegram" viewBox="0 0 32 32">
<path d="M32 2.667l-32 15 10.227 3.156 15.773-12.323-11.997 13.488 0.009 0.004-0.012-0.004v7.345l5.735-5.576 7.267 2.243 4.999-23.333z"></path>
</symbol>
<symbol id="icon-person" viewBox="0 0 32 32">
<path d="M16 16c2.946 0 5.333-2.388 5.333-5.333s-2.388-5.333-5.333-5.333v0c-2.946 0-5.333 2.388-5.333 5.333s2.388 5.333 5.333 5.333v0zM16 18.667c-3.561 0-10.667 1.787-10.667 5.333v1.333c0 0.732 0.599 1.333 1.333 1.333h18.667c0.732 0 1.333-0.601 1.333-1.333v-1.333c0-3.547-7.108-5.333-10.667-5.333z"></path>
</symbol>
<symbol id="icon-phone" viewBox="0 0 24 32">
<path d="M19.635 18.487l-2.451-0.28c-0.067-0.008-0.145-0.013-0.223-0.013-0.531 0-1.012 0.215-1.36 0.564l-1.775 1.775c-2.752-1.42-4.94-3.607-6.322-6.278l-0.038-0.081 1.787-1.785c0.347-0.347 0.562-0.827 0.562-1.358 0-0.079-0.005-0.156-0.014-0.233l0.001 0.009-0.28-2.432c-0.115-0.966-0.93-1.708-1.918-1.708-0.001 0-0.002 0-0.002 0h-1.669c-1.091 0-1.997 0.907-1.929 1.997 0.511 8.24 7.101 14.821 15.332 15.333 1.091 0.067 1.997-0.84 1.997-1.931v-1.669c0-0.003 0-0.007 0-0.011 0-0.981-0.739-1.789-1.69-1.899l-0.009-0.001z"></path>
</symbol>
<symbol id="icon-email" viewBox="0 0 24 32">
<path d="M20 8h-16c-1.1 0-1.989 0.9-1.989 2l-0.011 12c0 1.1 0.9 2 2 2h16c1.1 0 2-0.9 2-2v-12c0-1.1-0.9-2-2-2zM19.6 12.251l-7.069 4.419c-0.151 0.094-0.334 0.15-0.531 0.15s-0.38-0.056-0.535-0.153l0.004 0.002-7.069-4.419c-0.252-0.15-0.418-0.422-0.418-0.731 0-0.469 0.38-0.849 0.849-0.849 0.174 0 0.337 0.053 0.471 0.143l6.697 4.187 6.7-4.191c0.132-0.088 0.294-0.141 0.468-0.141 0.469 0 0.849 0.38 0.849 0.849 0 0.31-0.166 0.581-0.414 0.729l-0.004 0.002z"></path>
</symbol>
<symbol id="icon-vector" viewBox="0 0 40 32">
<path d="M33.784 1.020c0.659-0.637 1.558-1.030 2.548-1.030 2.007 0 3.637 1.611 3.668 3.611l0 0.003c0.001 0.028 0.001 0.061 0.001 0.095 0 0.965-0.368 1.844-0.972 2.504l0.003-0.003-19.576 24.616c-0.674 0.728-1.635 1.182-2.702 1.182-0.495 0-0.967-0.098-1.398-0.275l0.024 0.009c-0.477-0.197-0.884-0.473-1.224-0.816l-0-0-12.984-13.052c-0.724-0.677-1.175-1.638-1.175-2.705 0-0.501 0.1-0.98 0.28-1.416l-0.009 0.025c0.564-1.367 1.887-2.312 3.43-2.312 0.018 0 0.035 0 0.053 0l-0.003-0c1.038 0.019 1.967 0.467 2.622 1.174l0.002 0.002 10.276 10.328 17.040-21.832c0.032-0.039 0.065-0.074 0.1-0.108l-0.004-0z"></path>
</symbol>
<symbol id="icon-menu" viewBox="0 0 47 32">
<path stroke-linejoin="round" stroke-linecap="round" stroke-miterlimit="4" stroke-width="4.3636" d="M1.961 29.153h42.966M1.961 15.615h42.966M1.961 2.077h42.966"></path>
</symbol>
<symbol id="icon-money-1" viewBox="0 0 32 32">
<path fill="green" d="M12.171 9.697c0.123 0.049 0.256 0.088 0.399 0.116l-0.174 0.433c-0.093 0.233 0.020 0.497 0.252 0.59s0.497-0.020 0.59-0.252l0.261-0.65 0.092 0.012c0.51 0.065 1.035-0.035 1.47-0.247 0.457-0.222 0.828-0.576 1-1.004 0.046-0.115 0.076-0.233 0.092-0.351v-0.002c0.041-0.328-0.041-0.64-0.223-0.906-0.17-0.246-0.425-0.448-0.747-0.577-0.162-0.065-0.344-0.112-0.542-0.138l-0.879-0.111c-0.116-0.014-0.222-0.042-0.318-0.080-0.152-0.061-0.268-0.149-0.338-0.25-0.057-0.083-0.083-0.179-0.070-0.278l0.002-0.002c0.005-0.041 0.016-0.084 0.033-0.126 0.084-0.21 0.292-0.396 0.556-0.525 0.287-0.139 0.629-0.205 0.957-0.165l0.414 0.053c0.017 0.003 0.033 0.005 0.049 0.006l0.415 0.053c0.116 0.014 0.222 0.042 0.318 0.080 0.152 0.061 0.268 0.149 0.338 0.25 0.056 0.082 0.083 0.178 0.070 0.278-0.005 0.039-0.017 0.082-0.035 0.127-0.093 0.233 0.020 0.497 0.253 0.59s0.497-0.020 0.59-0.253c0.046-0.115 0.076-0.233 0.092-0.351v-0.002c0.041-0.328-0.041-0.64-0.223-0.905-0.17-0.246-0.425-0.448-0.747-0.577-0.123-0.049-0.256-0.088-0.399-0.115l0.174-0.434c0.093-0.233-0.020-0.497-0.252-0.59s-0.497 0.020-0.59 0.252l-0.262 0.65-0.094-0.012c-0.509-0.064-1.033 0.035-1.468 0.247-0.457 0.223-0.828 0.576-1.001 1.004-0.048 0.119-0.079 0.237-0.092 0.354-0.041 0.329 0.041 0.64 0.223 0.906 0.17 0.246 0.426 0.448 0.747 0.577 0.163 0.065 0.344 0.112 0.542 0.137l0.879 0.111c0.115 0.014 0.222 0.042 0.318 0.080 0.152 0.061 0.268 0.149 0.338 0.25 0.056 0.082 0.083 0.178 0.070 0.278-0.005 0.039-0.017 0.082-0.035 0.127-0.084 0.21-0.292 0.396-0.556 0.525-0.288 0.14-0.63 0.206-0.957 0.165l-0.413-0.052c-0.018-0.003-0.034-0.006-0.052-0.006l-0.413-0.053c-0.116-0.014-0.222-0.042-0.318-0.080-0.152-0.061-0.268-0.149-0.338-0.25-0.056-0.082-0.083-0.178-0.070-0.278 0.005-0.039 0.017-0.082 0.035-0.127 0.093-0.233-0.020-0.497-0.253-0.59s-0.497 0.020-0.59 0.253c-0.046 0.115-0.076 0.233-0.092 0.351v0.002c-0.041 0.328 0.041 0.64 0.223 0.905 0.172 0.246 0.428 0.448 0.749 0.577zM2.211 7.115c0-1.508 1.393-2.836 3.645-3.764 2.131-0.878 5.063-1.421 8.29-1.421s6.159 0.543 8.29 1.421c2.252 0.927 3.645 2.256 3.645 3.764s-1.393 2.836-3.645 3.764c-2.131 0.878-5.063 1.421-8.29 1.421s-6.16-0.543-8.29-1.421c-2.252-0.927-3.645-2.256-3.645-3.764zM3.12 7.115c0 1.104 1.177 2.141 3.080 2.925 2.024 0.834 4.832 1.349 7.945 1.349s5.921-0.516 7.945-1.349c1.903-0.784 3.080-1.821 3.080-2.925s-1.177-2.141-3.080-2.925c-2.024-0.834-4.833-1.349-7.945-1.349s-5.921 0.516-7.945 1.349c-1.903 0.784-3.080 1.821-3.080 2.925zM31.919 13.573v4.923c0 1.145-0.534 2.22-1.485 3.166-0.021 0.026-0.045 0.049-0.071 0.070-0.194 0.188-0.405 0.37-0.632 0.548l0.001 2.675c0 1.999-1.625 3.781-4.252 5.044-2.526 1.215-6.004 1.967-9.835 1.967s-7.309-0.752-9.835-1.967c-2.627-1.263-4.252-3.044-4.252-5.044v-4.923c0-0.722 0.214-1.419 0.613-2.076 0.296-0.488 0.695-0.95 1.182-1.383-0.673-0.397-1.259-0.832-1.741-1.3-0.026-0.021-0.049-0.043-0.069-0.069-0.951-0.946-1.486-2.021-1.486-3.166v-4.924c0-1.999 1.626-3.78 4.252-5.044 2.527-1.214 6.005-1.966 9.835-1.966s7.309 0.752 9.835 1.967c2.627 1.263 4.252 3.045 4.252 5.044v1.703c1.106 0.597 2.002 1.292 2.632 2.058 0.681 0.828 1.055 1.737 1.055 2.696zM28.232 9.859v1.123c0.452 0.346 0.814 0.722 1.071 1.119 0.303 0.465 0.464 0.959 0.464 1.472 0 1.479-1.339 2.785-3.513 3.709-2.052 0.871-4.884 1.427-8.022 1.47-0.020 0.003-0.041 0.006-0.061 0.009-0.038 0.006-0.076 0.011-0.115 0.017-0.159 0.022-0.32 0.044-0.482 0.064-0.012 0.002-0.024 0.003-0.036 0.005h-0.002c-0.002 0-0.005 0.001-0.008 0.001-0.021 0.002-0.042 0.005-0.063 0.007-0.143 0.017-0.287 0.033-0.432 0.048-0.024 0.002-0.048 0.005-0.072 0.007-0.165 0.017-0.33 0.031-0.497 0.045-0.016 0.002-0.032 0.003-0.048 0.004-0.025 0.002-0.050 0.004-0.075 0.006-0.055 0.004-0.109 0.008-0.164 0.012-0.026 0.002-0.051 0.003-0.076 0.005-0.64 0.044-1.293 0.067-1.956 0.067-0.659 0-1.307-0.023-1.942-0.066-0.033-0.002-0.066-0.004-0.098-0.006-0.050-0.003-0.1-0.007-0.15-0.011-0.027-0.002-0.055-0.004-0.082-0.006l-0.123-0.010c-0.030-0.002-0.061-0.005-0.092-0.008l-0.060-0.005c0.015 0.004 0.029 0.008 0.045 0.011 0.136 0.034 0.273 0.068 0.413 0.1h0.001c0.095 0.022 0.191 0.043 0.287 0.064 0.013 0.002 0.025 0.005 0.037 0.008 0.688 0.147 1.408 0.268 2.153 0.358 0.005 0.001 0.009 0.001 0.014 0.002 1.051 0.127 2.151 0.195 3.286 0.195 1.13 0 2.227-0.067 3.274-0.194 0.010-0.002 0.020-0.002 0.030-0.003 0.441-0.053 0.873-0.117 1.294-0.191 0.288-0.050 0.57-0.106 0.848-0.165 0.018-0.005 0.035-0.009 0.053-0.011 0.001 0 0.002-0.001 0.003-0.001 0.296-0.064 0.585-0.133 0.869-0.207 0.428-0.112 0.842-0.234 1.24-0.367 0.023-0.010 0.048-0.018 0.073-0.025 0.628-0.213 1.216-0.45 1.757-0.71 0.115-0.055 0.226-0.112 0.336-0.168 0.022-0.014 0.046-0.026 0.071-0.037 0.816-0.429 1.507-0.91 2.044-1.427 0.022-0.026 0.046-0.050 0.073-0.072 0.775-0.773 1.209-1.629 1.209-2.522 0-0.742-0.3-1.458-0.845-2.121-0.472-0.574-1.127-1.11-1.931-1.591zM26.896 10.129c-0.015 0.017-0.031 0.033-0.046 0.049v3.459c0.027-0.044 0.053-0.088 0.076-0.133 0.016-0.029 0.031-0.059 0.046-0.088 0.009-0.019 0.020-0.038 0.029-0.057 0.019-0.039 0.038-0.077 0.054-0.116 0.004-0.008 0.007-0.016 0.011-0.024 0.018-0.041 0.035-0.084 0.052-0.125 0.002-0.007 0.006-0.013 0.008-0.021 0.016-0.041 0.031-0.084 0.045-0.126 0.002-0.008 0.006-0.016 0.008-0.025 0.014-0.041 0.026-0.081 0.037-0.122 0.003-0.011 0.006-0.022 0.009-0.033 0.010-0.038 0.020-0.076 0.029-0.115 0.003-0.014 0.006-0.029 0.009-0.044 0.007-0.035 0.014-0.070 0.021-0.106 0.003-0.020 0.006-0.039 0.009-0.059 0.005-0.031 0.010-0.062 0.013-0.093 0.003-0.027 0.005-0.053 0.007-0.080 0.002-0.025 0.005-0.049 0.006-0.075 0.002-0.046 0.004-0.092 0.004-0.139 0-0.006 0.001-0.012 0.001-0.018v-2.411c-0.009 0.013-0.020 0.025-0.030 0.038-0.031 0.041-0.063 0.081-0.096 0.122-0.015 0.019-0.031 0.037-0.047 0.057-0.032 0.038-0.065 0.077-0.099 0.115-0.017 0.019-0.034 0.039-0.052 0.058-0.033 0.037-0.067 0.074-0.102 0.111zM16.934 17.999c0.033-0.003 0.064-0.007 0.096-0.010v-4.009c-0.432 0.044-0.871 0.079-1.317 0.103v4.012c0.148-0.008 0.296-0.018 0.444-0.028 0.023-0.002 0.047-0.003 0.070-0.006 0.057-0.004 0.115-0.009 0.172-0.014 0.161-0.013 0.32-0.027 0.479-0.043 0.019-0.002 0.037-0.004 0.057-0.006zM12.117 18.066c0.152 0.011 0.306 0.021 0.46 0.029v-4.012c-0.445-0.024-0.885-0.059-1.317-0.103v4.009c0.026 0.002 0.053 0.006 0.079 0.009s0.054 0.006 0.081 0.009c0.152 0.015 0.306 0.029 0.46 0.041 0.070 0.006 0.139 0.011 0.21 0.017 0.009-0.001 0.018 0 0.027 0.001zM23.855 19.922v3.991c0.455-0.11 0.894-0.233 1.317-0.366v-3.975c-0.425 0.128-0.863 0.245-1.317 0.35zM26.081 19.274v3.959c0.42-0.158 0.818-0.328 1.194-0.509 0.041-0.020 0.082-0.041 0.123-0.061v-3.92c-0.415 0.19-0.855 0.367-1.317 0.531zM22.945 20.114c-0.429 0.082-0.869 0.154-1.317 0.216v4.006c0.449-0.064 0.889-0.138 1.317-0.223v-3.998zM20.718 24.448v-4.009c-0.432 0.044-0.871 0.079-1.317 0.103v4.012c0.446-0.026 0.885-0.060 1.317-0.106zM17.832 20.584c-0.221 0-0.441-0.003-0.659-0.008v4.010c0.176 0.005 0.352 0.008 0.528 0.010 0.044 0 0.087 0.001 0.131 0.001 0.221 0 0.441-0.002 0.659-0.008v-4.013c-0.218 0.005-0.437 0.007-0.659 0.007zM24.732 11.767c-0.037 0.021-0.073 0.041-0.111 0.061v3.875c0.18-0.11 0.354-0.222 0.517-0.337 0.295-0.207 0.562-0.422 0.8-0.644v-3.743c-0.003 0.002-0.006 0.005-0.009 0.006-0.017 0.013-0.034 0.025-0.051 0.037-0.050 0.037-0.101 0.076-0.154 0.112-0.024 0.017-0.049 0.034-0.073 0.052-0.045 0.032-0.092 0.064-0.139 0.096-0.028 0.019-0.057 0.037-0.085 0.056-0.045 0.030-0.089 0.059-0.135 0.088-0.030 0.019-0.060 0.039-0.092 0.058-0.045 0.028-0.090 0.056-0.136 0.084-0.032 0.019-0.064 0.038-0.096 0.058-0.046 0.028-0.093 0.055-0.14 0.082-0.032 0.020-0.064 0.038-0.097 0.056zM23.712 12.285c-0.416 0.19-0.855 0.367-1.317 0.531v3.957c0.18-0.068 0.358-0.139 0.535-0.213 0.271-0.114 0.532-0.233 0.781-0.356v-3.919h0.001zM21.485 13.113c-0.425 0.127-0.864 0.245-1.318 0.35v3.99c0.19-0.046 0.38-0.095 0.569-0.147l0.026-0.006c0.010-0.002 0.021-0.006 0.030-0.008 0.154-0.043 0.308-0.087 0.46-0.133 0.018-0.006 0.037-0.011 0.056-0.017 0.060-0.018 0.117-0.037 0.176-0.056v-3.974h0.001zM19.258 13.655c-0.429 0.082-0.868 0.155-1.318 0.216v4.006c0.042-0.006 0.085-0.012 0.127-0.018 0.040-0.006 0.079-0.012 0.118-0.017 0.060-0.009 0.119-0.018 0.178-0.028 0.041-0.006 0.082-0.013 0.122-0.020 0.032-0.006 0.064-0.011 0.096-0.016 0.227-0.038 0.452-0.080 0.675-0.125v-3.997h0.001zM14.804 18.13v-4.013c-0.218 0.005-0.437 0.008-0.659 0.008s-0.441-0.002-0.659-0.008v4.013c0.218 0.005 0.438 0.008 0.659 0.008s0.44-0.002 0.659-0.008zM12.719 24.092c0.432 0.086 0.872 0.162 1.317 0.226v-3.987c-0.448-0.061-0.888-0.134-1.318-0.216l0 3.977zM14.946 20.438v3.994c0.436 0.048 0.875 0.085 1.318 0.112v-4.003c-0.446-0.025-0.885-0.060-1.318-0.104zM5.119 20.076l0.010 0.015v-2.645c-0.025-0.010-0.050-0.020-0.075-0.030-0.061-0.025-0.12-0.052-0.179-0.078-0.038-0.017-0.076-0.033-0.115-0.049-0.034-0.015-0.070-0.029-0.104-0.045v1.253c0 0.1 0.006 0.2 0.017 0.299l0.010 0.072c0.002 0.019 0.005 0.038 0.008 0.056 0.004 0.024 0.008 0.047 0.012 0.071 0.006 0.034 0.012 0.069 0.020 0.103 0.018 0.075 0.037 0.145 0.057 0.212 0.014 0.045 0.029 0.091 0.044 0.137 0.029 0.085 0.062 0.166 0.099 0.248 0.015 0.032 0.030 0.064 0.045 0.096 0.001 0.001 0.001 0.002 0.002 0.003 0.006 0.014 0.013 0.027 0.020 0.041 0.033 0.067 0.070 0.135 0.112 0.208 0.006 0.012 0.013 0.023 0.019 0.034zM8.122 13.464c-0.453-0.105-0.892-0.223-1.318-0.35v3.974l0.104 0.033 0.432 0.127c0.003 0.001 0.006 0.002 0.008 0.003 0.024 0.006 0.047 0.013 0.071 0.020 0.080 0.022 0.16 0.044 0.238 0.065 0.010 0.002 0.019 0.005 0.028 0.007 0.046 0.012 0.092 0.024 0.137 0.036 0.065 0.017 0.131 0.033 0.197 0.049 0.034 0.009 0.069 0.017 0.104 0.025v-3.989h-0.001zM6.448 21.534c0.050 0.040 0.1 0.080 0.151 0.119 0.020 0.011 0.037 0.025 0.053 0.039l0.225 0.161c0.084 0.058 0.174 0.119 0.272 0.182l0.195 0.122c0.003 0.002 0.007 0.004 0.010 0.006v-3.876c-0.031-0.018-0.063-0.034-0.094-0.052-0.043-0.024-0.085-0.049-0.127-0.073-0.032-0.018-0.064-0.037-0.096-0.055l-0.396-0.119c-0.135-0.042-0.273-0.087-0.413-0.133-0.019-0.006-0.038-0.011-0.056-0.019-0.019-0.006-0.037-0.013-0.056-0.019-0.017-0.006-0.033-0.012-0.051-0.018-0.010-0.003-0.019-0.006-0.028-0.010v3.38c0.118 0.117 0.249 0.235 0.41 0.365zM9.582 23.215v-3.94c-0.018-0.006-0.037-0.013-0.056-0.020-0.050-0.018-0.1-0.037-0.15-0.055-0.053-0.020-0.106-0.039-0.159-0.059-0.049-0.019-0.097-0.038-0.147-0.057-0.052-0.020-0.104-0.041-0.155-0.061-0.048-0.019-0.096-0.039-0.143-0.059-0.051-0.021-0.101-0.041-0.151-0.063-0.047-0.020-0.093-0.041-0.139-0.061-0.049-0.021-0.1-0.043-0.148-0.065-0.024-0.010-0.047-0.021-0.071-0.033v3.909c0.418 0.203 0.858 0.391 1.317 0.563zM10.349 17.877v-4.006c-0.585-0.079-1.033-0.155-1.477-0.242l0.16 0.026v3.997c0.053 0.010 0.107 0.022 0.16 0.033 0.006 0.002 0.013 0.002 0.019 0.004 0.161 0.031 0.323 0.060 0.487 0.087 0.039 0.006 0.077 0.013 0.116 0.020 0.033 0.006 0.065 0.010 0.098 0.016 0.068 0.010 0.135 0.022 0.202 0.032 0.032 0.005 0.064 0.010 0.096 0.014 0.047 0.006 0.093 0.013 0.139 0.019zM4.578 12.284v3.92c0.013 0.006 0.026 0.013 0.038 0.019 0.021 0.010 0.041 0.020 0.061 0.030 0.229 0.11 0.47 0.218 0.724 0.324 0.162 0.068 0.327 0.132 0.494 0.195v-3.957c-0.461-0.164-0.902-0.342-1.317-0.531zM11.504 19.849c-0.048-0.012-0.095-0.024-0.142-0.037-0.068-0.018-0.135-0.034-0.202-0.052-0.053-0.014-0.106-0.029-0.158-0.043-0.060-0.017-0.12-0.033-0.18-0.049-0.054-0.015-0.107-0.031-0.161-0.047-0.056-0.017-0.113-0.033-0.169-0.049v3.954c0.292 0.1 0.733 0.225 1.179 0.335l0.138 0.029v-3.968c-0.102-0.024-0.204-0.048-0.305-0.073zM23.912 17.117c0.725-0.192 1.392-0.417 1.987-0.67 1.831-0.778 2.958-1.795 2.958-2.873 0-0.334-0.109-0.663-0.315-0.978-0.088-0.135-0.193-0.268-0.314-0.399 0 0.004-0.001 0.009-0.001 0.013-0.001 0.011-0.001 0.022-0.002 0.033-0.001 0.018-0.003 0.036-0.004 0.054-0.001 0.017-0.002 0.033-0.004 0.050s-0.002 0.033-0.004 0.050c-0.002 0.017-0.004 0.034-0.006 0.052l-0.007 0.054c-0.006 0.053-0.014 0.104-0.023 0.156-0.002 0.014-0.005 0.029-0.008 0.043-0.011 0.059-0.023 0.117-0.037 0.176-0.002 0.007-0.003 0.013-0.005 0.021-0.082 0.344-0.213 0.679-0.389 1.005-0.006 0.012-0.012 0.022-0.017 0.031l0.001-0.002c-0.028 0.051-0.057 0.102-0.088 0.153-0.010 0.017-0.021 0.035-0.031 0.052-0.026 0.041-0.051 0.081-0.078 0.122-0.016 0.024-0.031 0.049-0.048 0.072-0.019 0.028-0.040 0.057-0.060 0.084-0.198 0.28-0.43 0.552-0.694 0.812-0.010 0.011-0.021 0.022-0.032 0.031-0.306 0.298-0.652 0.583-1.034 0.851-0.39 0.274-0.817 0.532-1.276 0.771-0.001 0.001-0.002 0.001-0.003 0.002s-0.003 0.002-0.006 0.003c-0.084 0.044-0.168 0.087-0.254 0.129-0.016 0.008-0.032 0.016-0.048 0.023-0.053 0.025-0.108 0.052-0.163 0.078zM2.351 14.728c0.373 0.345 0.815 0.672 1.317 0.978v-3.878c-0.037-0.021-0.074-0.041-0.111-0.061-0.032-0.018-0.063-0.036-0.095-0.054-0.049-0.028-0.096-0.056-0.144-0.084-0.031-0.018-0.061-0.037-0.092-0.056-0.048-0.029-0.095-0.058-0.141-0.087-0.029-0.018-0.058-0.037-0.087-0.055-0.048-0.030-0.095-0.061-0.141-0.092-0.026-0.018-0.053-0.035-0.079-0.053-0.049-0.033-0.098-0.067-0.146-0.101-0.022-0.015-0.045-0.031-0.066-0.046-0.056-0.040-0.11-0.080-0.164-0.12-0.014-0.010-0.027-0.020-0.041-0.030-0.003-0.002-0.007-0.006-0.011-0.008v3.747zM3.852 27.645c0.373 0.345 0.815 0.672 1.317 0.978v-3.878c-0.036-0.020-0.072-0.040-0.108-0.060s-0.069-0.040-0.104-0.060c-0.045-0.026-0.090-0.052-0.135-0.079-0.033-0.020-0.067-0.040-0.1-0.060-0.045-0.027-0.089-0.054-0.133-0.082-0.032-0.020-0.063-0.040-0.094-0.060-0.045-0.029-0.089-0.058-0.133-0.087-0.029-0.019-0.058-0.038-0.086-0.057-0.046-0.031-0.092-0.063-0.137-0.095-0.025-0.018-0.050-0.035-0.075-0.053-0.052-0.037-0.102-0.074-0.152-0.111-0.017-0.013-0.035-0.026-0.052-0.038-0.003-0.002-0.006-0.005-0.009-0.006v3.748h-0.001zM8.306 26.029v3.975c0.423 0.134 0.863 0.256 1.317 0.366v-3.991c-0.453-0.105-0.892-0.222-1.317-0.35zM10.533 30.57c0.428 0.085 0.867 0.159 1.317 0.223v-4.006c-0.586-0.079-1.034-0.155-1.478-0.242l0.16 0.026v3.999zM12.761 30.906c0.432 0.045 0.871 0.080 1.317 0.106v-4.012c-0.445-0.024-0.885-0.059-1.317-0.103v4.009zM17.215 26.999v4.012c0.446-0.025 0.886-0.060 1.317-0.106v-4.009c-0.432 0.045-0.871 0.079-1.317 0.103zM19.442 30.794c0.449-0.064 0.889-0.138 1.318-0.223v-3.999c-0.429 0.082-0.868 0.154-1.318 0.216v4.006zM21.669 30.371c0.455-0.11 0.894-0.233 1.317-0.366v-3.973c-0.007 0.002-0.014 0.004-0.020 0.006-0.418 0.125-0.851 0.239-1.297 0.343v3.991zM26.123 24.745v3.878c0.502-0.306 0.944-0.633 1.317-0.978v-3.747c-0.002 0.002-0.004 0.003-0.006 0.005-0.048 0.036-0.097 0.072-0.146 0.107-0.041 0.030-0.082 0.061-0.124 0.090-0.053 0.037-0.108 0.074-0.162 0.111-0.041 0.027-0.080 0.054-0.12 0.081-0.059 0.038-0.12 0.077-0.181 0.115-0.039 0.024-0.076 0.049-0.116 0.073-0.065 0.040-0.132 0.079-0.199 0.118-0.037 0.022-0.073 0.043-0.11 0.065-0.051 0.028-0.102 0.056-0.153 0.084zM29.024 21.685c0.217-0.162 0.418-0.327 0.603-0.498v-3.747c-0.003 0.002-0.007 0.005-0.010 0.008-0.014 0.010-0.028 0.021-0.041 0.031-0.053 0.040-0.107 0.080-0.163 0.119-0.022 0.016-0.045 0.031-0.067 0.047-0.048 0.033-0.096 0.068-0.146 0.101-0.026 0.017-0.053 0.035-0.079 0.053-0.047 0.031-0.093 0.061-0.141 0.092-0.029 0.018-0.057 0.037-0.087 0.055-0.047 0.029-0.094 0.058-0.142 0.088l-0.091 0.055c-0.048 0.029-0.097 0.057-0.146 0.085-0.031 0.018-0.061 0.036-0.092 0.053-0.037 0.021-0.075 0.041-0.112 0.062v3.864c0.232-0.137 0.461-0.28 0.7-0.458 0.005-0.006 0.010-0.008 0.014-0.011zM0.968 7.115c0 0.495 0.134 0.978 0.384 1.442 0.202 0.374 0.479 0.734 0.824 1.079 0.027 0.021 0.052 0.046 0.074 0.073 0.537 0.518 1.227 0.998 2.043 1.427 0.025 0.010 0.049 0.022 0.071 0.037 0.111 0.057 0.222 0.114 0.337 0.169 0.542 0.26 1.131 0.499 1.76 0.711 0.023 0.006 0.046 0.014 0.068 0.022 0.663 0.221 1.372 0.415 2.117 0.576 0.017 0.002 0.033 0.006 0.049 0.010 0.687 0.147 1.405 0.267 2.148 0.358 0.006 0.001 0.013 0.002 0.019 0.002 1.049 0.127 2.148 0.194 3.282 0.194s2.231-0.068 3.28-0.194c0.007-0.001 0.014-0.002 0.022-0.002 0.744-0.090 1.462-0.21 2.15-0.358 0.015-0.004 0.030-0.007 0.045-0.009 0.746-0.162 1.454-0.355 2.118-0.576 0.022-0.009 0.045-0.017 0.069-0.023 0.629-0.213 1.219-0.451 1.76-0.711 0.115-0.055 0.227-0.111 0.338-0.169 0.022-0.014 0.045-0.025 0.069-0.035 0.817-0.429 1.508-0.91 2.045-1.428 0.022-0.027 0.046-0.051 0.073-0.072 0.434-0.434 0.762-0.893 0.965-1.371 0.159-0.374 0.244-0.759 0.244-1.152 0-1.621-1.427-3.118-3.733-4.227-2.407-1.157-5.746-1.873-9.444-1.873s-7.036 0.716-9.444 1.873c-2.306 1.108-3.733 2.605-3.733 4.226zM0.968 12.039c0 0.55 0.165 1.086 0.472 1.598v-3.459l-0.045-0.047c-0.036-0.038-0.072-0.076-0.106-0.116-0.017-0.018-0.033-0.037-0.049-0.056-0.027-0.030-0.059-0.068-0.092-0.107l-0.008-0.010c-0.015-0.018-0.030-0.037-0.045-0.054-0.033-0.041-0.065-0.082-0.097-0.123-0.010-0.013-0.020-0.025-0.029-0.037v2.412zM2.947 18.425c-0.311 0.511-0.477 1.051-0.477 1.607 0 0.27 0.041 0.537 0.117 0.799 0.384 1.31 1.694 2.503 3.616 3.428 2.407 1.157 5.745 1.873 9.444 1.873 2.595 0 5.014-0.354 7.060-0.965 0.056-0.017 0.111-0.034 0.167-0.052 0.063-0.020 0.127-0.039 0.19-0.059 0.059-0.019 0.117-0.039 0.176-0.058 0.047-0.016 0.095-0.031 0.142-0.047-0.346 0.074-0.68 0.136-1.009 0.189-0.371 0.062-0.75 0.116-1.134 0.163-0.009 0.002-0.018 0.002-0.026 0.003-0.972 0.118-1.984 0.186-3.024 0.198h-0.002c-0.117 0.002-0.234 0.002-0.352 0.002-1.164 0-2.296-0.070-3.377-0.201-0.010-0.001-0.019-0.002-0.029-0.003-0.482-0.059-0.954-0.13-1.415-0.212-2.626-0.249-4.922-0.866-6.559-1.713-1.716-0.888-2.741-2.049-2.741-3.347 0-0.146 0.014-0.296 0.043-0.449v-0.002c0.018-0.101 0.045-0.202 0.076-0.302-0.023-0.097-0.044-0.22-0.058-0.346l-0.002-0.016c0-0.002-0.001-0.006-0.001-0.008v-0.003c-0.014-0.121-0.023-0.263-0.024-0.406v-1.056c-0.326 0.314-0.594 0.642-0.8 0.981zM2.469 24.955c0 0.55 0.165 1.087 0.472 1.599v-3.459c-0.016-0.016-0.031-0.033-0.046-0.049-0.035-0.037-0.069-0.074-0.103-0.112-0.018-0.020-0.035-0.039-0.053-0.059-0.033-0.037-0.065-0.076-0.097-0.114-0.016-0.019-0.033-0.039-0.049-0.058-0.032-0.039-0.063-0.079-0.094-0.119-0.010-0.013-0.022-0.027-0.032-0.041v2.412h0.001zM6.202 29.181c0.376 0.181 0.774 0.35 1.194 0.509v-3.959c-0.461-0.164-0.902-0.342-1.317-0.531v3.92c0.042 0.022 0.082 0.041 0.123 0.061zM16.305 31.048v-4.014c-0.218 0.005-0.437 0.008-0.659 0.008s-0.44-0.002-0.659-0.008v4.013c0.218 0.005 0.438 0.008 0.659 0.008s0.44-0.002 0.659-0.007zM25.090 29.181c0.041-0.020 0.082-0.041 0.123-0.061v-3.92c-0.081 0.037-0.164 0.074-0.248 0.11-0.016 0.007-0.032 0.014-0.048 0.022-0.117 0.051-0.237 0.1-0.357 0.149-0.003 0.002-0.006 0.003-0.010 0.004l-0 0c-0.213 0.085-0.431 0.167-0.654 0.247v3.958c0.419-0.158 0.818-0.328 1.194-0.509zM28.823 22.914c-0.147 0.095-0.311 0.189-0.473 0.276v3.364c0.308-0.511 0.473-1.048 0.473-1.599v-2.041zM30.982 16.119c-0.033 0.043-0.067 0.086-0.101 0.128-0.014 0.018-0.029 0.034-0.043 0.052-0.033 0.041-0.068 0.081-0.103 0.12-0.016 0.017-0.032 0.036-0.048 0.053-0.035 0.039-0.071 0.078-0.108 0.117-0.014 0.015-0.029 0.031-0.044 0.046v3.459c0.307-0.511 0.473-1.048 0.473-1.599v-2.411c-0.009 0.011-0.018 0.022-0.027 0.033z"></path>
</symbol>
</svg>
