<svg aria-hidden="true" style="position: absolute; width: 0; height: 0; overflow: hidden;" version="1.1" xmlns="http://www.w3.org/2000/svg" xmlns:xlink="http://www.w3.org/1999/xlink">
<defs>
<symbol id="icon-body" viewBox="0 0 32 32">
<path d="M19.5 3.5c0 1.933-1.567 3.5-3.5 3.5s-3.5-1.567-3.5-3.5c0-1.933 1.567-3.5 3.5-3.5s3.5 1.567 3.5 3.5z"></path>
<path d="M27.313 8h-22.625c-0.932 0-1.688 0.756-1.688 1.688s0.756 1.688 1.688 1.688v0h6.367c0.432 0 0.938 0.193 1.224 0.938 0.334 0.864 0.171 2.534-0.036 3.827l-0.27 1.528c0 0.001 0 0.002 0 0.003 0 0.007-0.003 0.014-0.008 0.019v0l-2.162 12.301c-0.016 0.089-0.026 0.192-0.026 0.297 0 0.839 0.603 1.538 1.4 1.686l0.011 0.002c0.089 0.016 0.19 0.026 0.295 0.026 0.838 0 1.534-0.609 1.668-1.409l0.001-0.010 1.494-8.55s0.479-2.031 1.354-2.031c0.889 0 1.359 2.031 1.359 2.031l1.494 8.557c0.136 0.816 0.837 1.43 1.681 1.43 0.94 0 1.703-0.762 1.703-1.703 0-0.116-0.012-0.229-0.034-0.339l0.002 0.011-2.163-12.301c0-0.001 0-0.002 0-0.003 0-0.007-0.003-0.014-0.007-0.019l0 0-0.271-1.528c-0.206-1.293-0.37-2.963-0.036-3.827 0.285-0.742 0.807-0.938 1.205-0.938h6.379c0.932 0 1.688-0.756 1.688-1.688s-0.756-1.688-1.688-1.688v0z"></path>
</symbol>
<symbol id="icon-head" viewBox="0 0 32 32">
<path d="M29.725 18.469l-2.588-5.486c0.007-0.164 0.013-0.328 0.013-0.494 0-6.896-5.592-12.488-12.489-12.488s-12.489 5.592-12.489 12.488c0 3.879 1.768 7.345 4.542 9.636v4.414c0 0.431 0.257 0.82 0.653 0.988l10.344 4.388c0.331 0.141 0.711 0.106 1.011-0.092 0.301-0.199 0.481-0.535 0.481-0.895v-3.741c0-0.592 0.48-1.073 1.072-1.073h5.298c0.593 0 1.072-0.48 1.072-1.072v-3.226c0-0.411 0.235-0.786 0.605-0.966l1.974-0.958c0.529-0.258 0.753-0.892 0.502-1.423z"></path>
</symbol>
<symbol id="icon-money-1" viewBox="0 0 32 32">
<path fill="#1c274c" style="fill: var(--color1, #1c274c)" d="M16.069 1.667h-0.139c-1.198 0-2.197 0-2.99 0.107-0.837 0.112-1.593 0.36-2.2 0.967s-0.855 1.363-0.967 2.2c-0.076 0.569-0.098 1.928-0.104 3.094-2.696 0.088-4.315 0.403-5.44 1.528-1.562 1.562-1.562 4.076-1.562 9.105s0 7.543 1.562 9.105c1.562 1.562 4.076 1.562 9.105 1.562h5.333c5.028 0 7.543 0 9.105-1.562s1.562-4.076 1.562-9.105 0-7.543-1.562-9.105c-1.125-1.125-2.744-1.44-5.44-1.528-0.006-1.165-0.028-2.525-0.104-3.093-0.113-0.837-0.36-1.593-0.967-2.2s-1.363-0.855-2.2-0.967c-0.793-0.107-1.792-0.107-2.99-0.107zM20.331 8.003c-0.006-1.129-0.025-2.344-0.086-2.795-0.083-0.615-0.226-0.879-0.399-1.052s-0.437-0.317-1.052-0.399c-0.644-0.087-1.507-0.089-2.793-0.089s-2.149 0.002-2.793 0.089c-0.615 0.083-0.879 0.226-1.052 0.399s-0.317 0.437-0.399 1.052c-0.061 0.452-0.080 1.666-0.086 2.795 0.522-0.003 1.076-0.003 1.664-0.003h5.333c0.588 0 1.142 0 1.664 0.003zM16 12.333c0.552 0 1 0.448 1 1v0 0.014c1.452 0.366 2.667 1.51 2.667 3.097 0 0.552-0.448 1-1 1s-1-0.448-1-1v0c0-0.512-0.568-1.222-1.667-1.222s-1.667 0.71-1.667 1.222c0 0.512 0.568 1.222 1.667 1.222 1.847 0 3.667 1.28 3.667 3.222 0 1.587-1.215 2.732-2.667 3.097v0.014c0 0.552-0.448 1-1 1s-1-0.448-1-1v0-0.014c-1.452-0.366-2.667-1.51-2.667-3.097 0-0.552 0.448-1 1-1s1 0.448 1 1v0c0 0.512 0.568 1.222 1.667 1.222s1.667-0.71 1.667-1.222c0-0.512-0.568-1.222-1.667-1.222-1.847 0-3.667-1.28-3.667-3.222 0-1.587 1.215-2.732 2.667-3.097v-0.014c0-0.552 0.448-1 1-1v0z"></path>
</symbol>
</defs>
</svg>
