<svg aria-hidden="true" style="position: absolute; width: 0; height: 0; overflow: hidden;" version="1.1" xmlns="http://www.w3.org/2000/svg" xmlns:xlink="http://www.w3.org/1999/xlink">
<defs>
<symbol id="icon-head" viewBox="0 0 28 32">
<path fill="#c3cd4d" style="fill: var(--color1, #c3cd4d)" d="M4.2 31.962c1.986-4.963 1.224-8.688-3.123-15.661-2.253-3.614-1.085-12.169 5.867-14.903 5.157-2.028 11.467-1.874 15.862 1.517 1.677 1.294 2.209 3.318 2.2 5.418-0.002 0.344 0.052 0.686 0.153 1.015 0.244 0.79 0.451 1.591 0.168 2.267-0.36 0.861-0.534 1.53 0 2.298l2.543 3.87c0.227 0.345 0.013 0.806-0.396 0.859-1.149 0.15-1.826 0.713-1.143 2.275 0.143 0.326 0.119 0.61-0.201 0.781-0.313 0.167-0.32 0.348-0.178 0.692 0.116 0.281-0.029 0.56-0.223 0.803-0.491 0.677-0.58 1.446-0.379 2.454 0.239 1.198-0.132 2.156-1.093 2.097-1.712-0.106-3.144-0.534-4.506 0.067-1.469 0.648-2.099 2.068-1.941 4.172l-13.609-0.022z"></path>
</symbol>
<symbol id="icon-body" viewBox="0 0 12 32">
<path fill="#c3cd4d" style="fill: var(--color1, #c3cd4d)" d="M12.040 17.346c-0.147-0.087-0.241-0.241-0.288-0.348-0.033-0.074-0.087-0.134-0.154-0.174l-0.388-0.234c-0.013-0.007-0.020-0.020-0.013-0.033 0.087-0.642-0.334-4.675-0.334-4.895 0-0.053-0.053-0.415-0.094-0.669-0.020-0.14-0.027-0.288 0-0.428 0.14-0.903-0.134-2.234-0.247-2.742v-0.080c0.635-2.294-0.91-2.267-0.976-2.267h-0.007c-0.354-0.047-0.696-0.127-1.030-0.247-0.488-0.174-0.896-0.308-1.197-0.395-0.174-0.053-0.294-0.214-0.294-0.395v-0.408c0-0.007 0-0.013 0.007-0.020 0.254-0.314 0.421-0.736 0.528-1.157 0.007-0.013 0.013-0.020 0.034-0.020 0.147 0 0.341-0.234 0.368-0.488 0.027-0.268-0.067-0.488-0.214-0.502h-0.013c0.007-0.127 0.013-0.247 0.013-0.348-0.020-0.836-0.689-1.391-1.538-1.478-0.856 0.087-1.518 0.642-1.525 1.478 0 0.1 0.007 0.221 0.013 0.348h-0.013c-0.147 0.013-0.241 0.234-0.214 0.502 0.033 0.261 0.227 0.488 0.368 0.488 0.013 0 0.027 0.007 0.033 0.020 0.107 0.421 0.274 0.843 0.528 1.157 0.007 0.007 0.007 0.013 0.007 0.020v0.401c0 0.181-0.12 0.341-0.294 0.395-0.301 0.087-0.709 0.221-1.197 0.395-0.334 0.12-0.675 0.201-1.030 0.247h-0.007c-0.067 0-1.612-0.027-0.976 2.267v0.080c-0.12 0.508-0.388 1.846-0.247 2.742 0.020 0.14 0.020 0.288 0 0.428-0.040 0.254-0.094 0.615-0.094 0.669 0 0.221-0.421 4.253-0.334 4.895 0 0.013-0.007 0.027-0.013 0.033l-0.388 0.234c-0.067 0.040-0.12 0.1-0.154 0.174-0.047 0.107-0.14 0.261-0.288 0.348-0.227 0.134-0.381 0.060-0.328 0.214s0.314 0.14 0.408 0.114c0.067-0.020 0.234 0.033 0.441-0.14l-0.013 0.047-0.013 0.040c-0.007 0.020-0.094 0.261-0.1 0.274l-0.368 0.729c-0.047 0.060-0.027 0.127 0.027 0.154l0.074 0.033c0.040 0.020 0.094 0.007 0.127-0.027l0.428-0.709c0.027-0.033 0.067-0.033 0.1-0.013l0.013 0.007c0.020 0.020 0.033 0.047 0.020 0.074l-0.301 1.010c-0.020 0.060 0.013 0.12 0.074 0.134l0.040 0.013c0.047 0.013 0.1-0.013 0.12-0.060l0.395-1.057c0.013-0.033 0.013-0.033 0.047-0.040l0.054 0.020c0.013 0.020 0.020 0.040 0.020 0.067v0.869c0 0.060 0.027 0.114 0.074 0.147 0.087 0.060 0.161 0 0.167-0.067l0.060-0.93c0-0.033 0.033-0.067 0.067-0.067s0.060 0.027 0.067 0.060l0.074 0.502c0.007 0.053 0.060 0.1 0.114 0.094 0.040-0.007 0.074-0.033 0.087-0.074l0.074-0.742c0.020-0.167 0.060-0.675 0.033-0.843l-0.127-0.609c-0.007-0.013-0.007-0.027-0.020-0.033-0.007-0.007-0.007-0.013-0.007-0.027 0.060-0.395 0.341-0.742 0.829-3.344 0.013-0.074 0.020-0.147 0.027-0.221l0.054-0.809c0.207-0.776 0.288-2.274 0.308-2.675 0.040-0.007 0.080 0.013 0.087 0.053l0.107 0.635v0.007c0 0.334 0 0.702 0.067 1.13 0.027 0.187-0.040 0.542-0.12 0.936-0.033 0.134-0.074 0.294-0.114 0.482-0.415 1.585-0.368 2.635-0.401 3.27v0.14c-0.013 0.435 0.020 0.635 0.020 0.649 0.013 0.401 0.047 0.863 0.114 1.378 0.114 1.124 0.314 2.869 0.609 4.24 0.067 0.321 0.067 0.655 0.007 0.983-0.107 0.542-0.234 1.438-0.1 2.12 0.194 0.976 0.843 3.959 0.936 4.36 0 0.007 0 0.020-0.007 0.027-0.027 0.033-0.053 0.067-0.087 0.094-0.067 0.074-0.154 0.207-0.187 0.448-0.033 0.227-0.542 0.963-0.448 1.11 0.074 0.12 0.856 0.301 1.317 0.361 0.107 0.013 0.027 0.12 0.361 0.087 0.114-0.013 0.107-0.027 0.127-0.281 0-0.047 0.060-0.134 0.060-0.187 0.007-0.301-0.013-0.796-0.047-1.618l-0.107-2.528c0-0.007 0.181-1.511 0.107-1.839s0.114-2.187 0.114-2.194v-1.705c0-0.040 0.16-2.642 0.267-3.324 0.107 0.682 0.268 3.284 0.268 3.324v1.705c0 0.007 0.187 1.866 0.114 2.194s0.107 1.832 0.107 1.839l-0.107 2.528c-0.033 0.823-0.053 1.317-0.047 1.618 0 0.053 0.060 0.14 0.060 0.187 0.020 0.254 0.013 0.267 0.127 0.281 0.334 0.033 0.254-0.074 0.361-0.087 0.461-0.060 1.244-0.241 1.317-0.361 0.094-0.147-0.415-0.883-0.448-1.11-0.033-0.241-0.12-0.375-0.187-0.448-0.027-0.027-0.060-0.067-0.087-0.094-0.007-0.007-0.007-0.013-0.007-0.027 0.087-0.401 0.742-3.384 0.936-4.36 0.134-0.682 0.007-1.578-0.1-2.12-0.060-0.328-0.060-0.662 0.007-0.983 0.294-1.371 0.495-3.116 0.609-4.24 0.067-0.515 0.1-0.976 0.114-1.378 0-0.013 0.033-0.214 0.020-0.649v-0.14c-0.033-0.635 0.013-1.685-0.401-3.27-0.040-0.187-0.080-0.348-0.114-0.482-0.080-0.395-0.147-0.749-0.12-0.936 0.067-0.428 0.067-0.796 0.067-1.13v-0.007l0.107-0.635c0.007-0.040 0.047-0.060 0.087-0.053 0.020 0.401 0.1 1.899 0.308 2.675l0.053 0.809c0.007 0.074 0.013 0.147 0.027 0.221 0.488 2.601 0.769 2.942 0.829 3.344 0 0.007-0 0.020-0.007 0.027s-0.013 0.020-0.020 0.033l-0.127 0.609c-0.027 0.167 0.013 0.675 0.033 0.843l0.074 0.742c0.013 0.040 0.047 0.067 0.087 0.074 0.053 0.007 0.107-0.040 0.114-0.094l0.074-0.502c0.007-0.033 0.033-0.060 0.067-0.060s0.067 0.033 0.067 0.067l0.060 0.93c0.007 0.067 0.087 0.134 0.167 0.067 0.047-0.033 0.074-0.094 0.074-0.147v-0.869c0-0.027 0.007-0.047 0.020-0.067l0.053-0.020c0.033 0.007 0.034 0.007 0.047 0.040l0.395 1.057c0.020 0.047 0.074 0.074 0.12 0.060l0.040-0.013c0.060-0.013 0.094-0.074 0.074-0.134l-0.301-1.010c-0.013-0.027 0-0.053 0.020-0.074l0.013-0.007c0.033-0.020 0.073-0.020 0.1 0.013l0.428 0.709c0.033 0.033 0.087 0.047 0.127 0.027l0.074-0.033c0.054-0.027 0.074-0.094 0.040-0.147l-0.368-0.729c-0.007-0.013-0.094-0.254-0.1-0.274l-0.013-0.040-0.013-0.047c0.207 0.174 0.374 0.12 0.441 0.14 0.094 0.027 0.354 0.040 0.408-0.114s-0.1-0.080-0.328-0.214z"></path>
</symbol>
<symbol id="icon-money" viewBox="0 0 32 32">
<path fill="#c3cc4d" style="fill: var(--color2, #c3cc4d)" d="M12.171 9.697c0.123 0.049 0.256 0.088 0.399 0.116l-0.174 0.433c-0.093 0.233 0.020 0.497 0.252 0.59s0.497-0.020 0.59-0.252l0.261-0.65 0.092 0.012c0.51 0.065 1.035-0.035 1.47-0.247 0.457-0.222 0.828-0.576 1-1.004 0.046-0.115 0.076-0.233 0.092-0.351v-0.002c0.041-0.328-0.041-0.64-0.223-0.906-0.17-0.246-0.425-0.448-0.747-0.577-0.162-0.065-0.344-0.112-0.542-0.138l-0.879-0.111c-0.116-0.014-0.222-0.042-0.318-0.080-0.152-0.061-0.268-0.149-0.338-0.25-0.057-0.083-0.083-0.179-0.070-0.278l0.002-0.002c0.005-0.041 0.016-0.084 0.033-0.126 0.084-0.21 0.292-0.396 0.556-0.525 0.287-0.139 0.629-0.205 0.957-0.165l0.414 0.053c0.017 0.003 0.033 0.005 0.049 0.006l0.415 0.053c0.116 0.014 0.222 0.042 0.318 0.080 0.152 0.061 0.268 0.149 0.338 0.25 0.056 0.082 0.083 0.178 0.070 0.278-0.005 0.039-0.017 0.082-0.035 0.127-0.093 0.233 0.020 0.497 0.253 0.59s0.497-0.020 0.59-0.253c0.046-0.115 0.076-0.233 0.092-0.351v-0.002c0.041-0.328-0.041-0.64-0.223-0.905-0.17-0.246-0.425-0.448-0.747-0.577-0.123-0.049-0.256-0.088-0.399-0.115l0.174-0.434c0.093-0.233-0.020-0.497-0.252-0.59s-0.497 0.020-0.59 0.252l-0.262 0.65-0.094-0.012c-0.509-0.064-1.033 0.035-1.468 0.247-0.457 0.223-0.828 0.576-1.001 1.004-0.048 0.119-0.079 0.237-0.092 0.354-0.041 0.329 0.041 0.64 0.223 0.906 0.17 0.246 0.426 0.448 0.747 0.577 0.163 0.065 0.344 0.112 0.542 0.137l0.879 0.111c0.115 0.014 0.222 0.042 0.318 0.080 0.152 0.061 0.268 0.149 0.338 0.25 0.056 0.082 0.083 0.178 0.070 0.278-0.005 0.039-0.017 0.082-0.035 0.127-0.084 0.21-0.292 0.396-0.556 0.525-0.288 0.14-0.63 0.206-0.957 0.165l-0.413-0.052c-0.018-0.003-0.034-0.006-0.052-0.006l-0.413-0.053c-0.116-0.014-0.222-0.042-0.318-0.080-0.152-0.061-0.268-0.149-0.338-0.25-0.056-0.082-0.083-0.178-0.070-0.278 0.005-0.039 0.017-0.082 0.035-0.127 0.093-0.233-0.020-0.497-0.253-0.59s-0.497 0.020-0.59 0.253c-0.046 0.115-0.076 0.233-0.092 0.351v0.002c-0.041 0.328 0.041 0.64 0.223 0.905 0.172 0.246 0.428 0.448 0.749 0.577zM2.211 7.115c0-1.508 1.393-2.836 3.645-3.764 2.131-0.878 5.063-1.421 8.29-1.421s6.159 0.543 8.29 1.421c2.252 0.927 3.645 2.256 3.645 3.764s-1.393 2.836-3.645 3.764c-2.131 0.878-5.063 1.421-8.29 1.421s-6.16-0.543-8.29-1.421c-2.252-0.927-3.645-2.256-3.645-3.764zM3.12 7.115c0 1.104 1.177 2.141 3.080 2.925 2.024 0.834 4.832 1.349 7.945 1.349s5.921-0.516 7.945-1.349c1.903-0.784 3.080-1.821 3.080-2.925s-1.177-2.141-3.080-2.925c-2.024-0.834-4.833-1.349-7.945-1.349s-5.921 0.516-7.945 1.349c-1.903 0.784-3.080 1.821-3.080 2.925zM31.919 13.573v4.923c0 1.145-0.534 2.22-1.485 3.166-0.021 0.026-0.045 0.049-0.071 0.070-0.194 0.188-0.405 0.37-0.632 0.548l0.001 2.675c0 1.999-1.625 3.781-4.252 5.044-2.526 1.215-6.004 1.967-9.835 1.967s-7.309-0.752-9.835-1.967c-2.627-1.263-4.252-3.044-4.252-5.044v-4.923c0-0.722 0.214-1.419 0.613-2.076 0.296-0.488 0.695-0.95 1.182-1.383-0.673-0.397-1.259-0.832-1.741-1.3-0.026-0.021-0.049-0.043-0.069-0.069-0.951-0.946-1.486-2.021-1.486-3.166v-4.924c0-1.999 1.626-3.78 4.252-5.044 2.527-1.214 6.005-1.966 9.835-1.966s7.309 0.752 9.835 1.967c2.627 1.263 4.252 3.045 4.252 5.044v1.703c1.106 0.597 2.002 1.292 2.632 2.058 0.681 0.828 1.055 1.737 1.055 2.696zM28.232 9.859v1.123c0.452 0.346 0.814 0.722 1.071 1.119 0.303 0.465 0.464 0.959 0.464 1.472 0 1.479-1.339 2.785-3.513 3.709-2.052 0.871-4.884 1.427-8.022 1.47-0.020 0.003-0.041 0.006-0.061 0.009-0.038 0.006-0.076 0.011-0.115 0.017-0.159 0.022-0.32 0.044-0.482 0.064-0.012 0.002-0.024 0.003-0.036 0.005h-0.002c-0.002 0-0.005 0.001-0.008 0.001-0.021 0.002-0.042 0.005-0.063 0.007-0.143 0.017-0.287 0.033-0.432 0.048-0.024 0.002-0.048 0.005-0.072 0.007-0.165 0.017-0.33 0.031-0.497 0.045-0.016 0.002-0.032 0.003-0.048 0.004-0.025 0.002-0.050 0.004-0.075 0.006-0.055 0.004-0.109 0.008-0.164 0.012-0.026 0.002-0.051 0.003-0.076 0.005-0.64 0.044-1.293 0.067-1.956 0.067-0.659 0-1.307-0.023-1.942-0.066-0.033-0.002-0.066-0.004-0.098-0.006-0.050-0.003-0.1-0.007-0.15-0.011-0.027-0.002-0.055-0.004-0.082-0.006l-0.123-0.010c-0.030-0.002-0.061-0.005-0.092-0.008l-0.060-0.005c0.015 0.004 0.029 0.008 0.045 0.011 0.136 0.034 0.273 0.068 0.413 0.1h0.001c0.095 0.022 0.191 0.043 0.287 0.064 0.013 0.002 0.025 0.005 0.037 0.008 0.688 0.147 1.408 0.268 2.153 0.358 0.005 0.001 0.009 0.001 0.014 0.002 1.051 0.127 2.151 0.195 3.286 0.195 1.13 0 2.227-0.067 3.274-0.194 0.010-0.002 0.020-0.002 0.030-0.003 0.441-0.053 0.873-0.117 1.294-0.191 0.288-0.050 0.57-0.106 0.848-0.165 0.018-0.005 0.035-0.009 0.053-0.011 0.001 0 0.002-0.001 0.003-0.001 0.296-0.064 0.585-0.133 0.869-0.207 0.428-0.112 0.842-0.234 1.24-0.367 0.023-0.010 0.048-0.018 0.073-0.025 0.628-0.213 1.216-0.45 1.757-0.71 0.115-0.055 0.226-0.112 0.336-0.168 0.022-0.014 0.046-0.026 0.071-0.037 0.816-0.429 1.507-0.91 2.044-1.427 0.022-0.026 0.046-0.050 0.073-0.072 0.775-0.773 1.209-1.629 1.209-2.522 0-0.742-0.3-1.458-0.845-2.121-0.472-0.574-1.127-1.11-1.931-1.591zM26.896 10.129c-0.015 0.017-0.031 0.033-0.046 0.049v3.459c0.027-0.044 0.053-0.088 0.076-0.133 0.016-0.029 0.031-0.059 0.046-0.088 0.009-0.019 0.020-0.038 0.029-0.057 0.019-0.039 0.038-0.077 0.054-0.116 0.004-0.008 0.007-0.016 0.011-0.024 0.018-0.041 0.035-0.084 0.052-0.125 0.002-0.007 0.006-0.013 0.008-0.021 0.016-0.041 0.031-0.084 0.045-0.126 0.002-0.008 0.006-0.016 0.008-0.025 0.014-0.041 0.026-0.081 0.037-0.122 0.003-0.011 0.006-0.022 0.009-0.033 0.010-0.038 0.020-0.076 0.029-0.115 0.003-0.014 0.006-0.029 0.009-0.044 0.007-0.035 0.014-0.070 0.021-0.106 0.003-0.020 0.006-0.039 0.009-0.059 0.005-0.031 0.010-0.062 0.013-0.093 0.003-0.027 0.005-0.053 0.007-0.080 0.002-0.025 0.005-0.049 0.006-0.075 0.002-0.046 0.004-0.092 0.004-0.139 0-0.006 0.001-0.012 0.001-0.018v-2.411c-0.009 0.013-0.020 0.025-0.030 0.038-0.031 0.041-0.063 0.081-0.096 0.122-0.015 0.019-0.031 0.037-0.047 0.057-0.032 0.038-0.065 0.077-0.099 0.115-0.017 0.019-0.034 0.039-0.052 0.058-0.033 0.037-0.067 0.074-0.102 0.111zM16.934 17.999c0.033-0.003 0.064-0.007 0.096-0.010v-4.009c-0.432 0.044-0.871 0.079-1.317 0.103v4.012c0.148-0.008 0.296-0.018 0.444-0.028 0.023-0.002 0.047-0.003 0.070-0.006 0.057-0.004 0.115-0.009 0.172-0.014 0.161-0.013 0.32-0.027 0.479-0.043 0.019-0.002 0.037-0.004 0.057-0.006zM12.117 18.066c0.152 0.011 0.306 0.021 0.46 0.029v-4.012c-0.445-0.024-0.885-0.059-1.317-0.103v4.009c0.026 0.002 0.053 0.006 0.079 0.009s0.054 0.006 0.081 0.009c0.152 0.015 0.306 0.029 0.46 0.041 0.070 0.006 0.139 0.011 0.21 0.017 0.009-0.001 0.018 0 0.027 0.001zM23.855 19.922v3.991c0.455-0.11 0.894-0.233 1.317-0.366v-3.975c-0.425 0.128-0.863 0.245-1.317 0.35zM26.081 19.274v3.959c0.42-0.158 0.818-0.328 1.194-0.509 0.041-0.020 0.082-0.041 0.123-0.061v-3.92c-0.415 0.19-0.855 0.367-1.317 0.531zM22.945 20.114c-0.429 0.082-0.869 0.154-1.317 0.216v4.006c0.449-0.064 0.889-0.138 1.317-0.223v-3.998zM20.718 24.448v-4.009c-0.432 0.044-0.871 0.079-1.317 0.103v4.012c0.446-0.026 0.885-0.060 1.317-0.106zM17.832 20.584c-0.221 0-0.441-0.003-0.659-0.008v4.010c0.176 0.005 0.352 0.008 0.528 0.010 0.044 0 0.087 0.001 0.131 0.001 0.221 0 0.441-0.002 0.659-0.008v-4.013c-0.218 0.005-0.437 0.007-0.659 0.007zM24.732 11.767c-0.037 0.021-0.073 0.041-0.111 0.061v3.875c0.18-0.11 0.354-0.222 0.517-0.337 0.295-0.207 0.562-0.422 0.8-0.644v-3.743c-0.003 0.002-0.006 0.005-0.009 0.006-0.017 0.013-0.034 0.025-0.051 0.037-0.050 0.037-0.101 0.076-0.154 0.112-0.024 0.017-0.049 0.034-0.073 0.052-0.045 0.032-0.092 0.064-0.139 0.096-0.028 0.019-0.057 0.037-0.085 0.056-0.045 0.030-0.089 0.059-0.135 0.088-0.030 0.019-0.060 0.039-0.092 0.058-0.045 0.028-0.090 0.056-0.136 0.084-0.032 0.019-0.064 0.038-0.096 0.058-0.046 0.028-0.093 0.055-0.14 0.082-0.032 0.020-0.064 0.038-0.097 0.056zM23.712 12.285c-0.416 0.19-0.855 0.367-1.317 0.531v3.957c0.18-0.068 0.358-0.139 0.535-0.213 0.271-0.114 0.532-0.233 0.781-0.356v-3.919h0.001zM21.485 13.113c-0.425 0.127-0.864 0.245-1.318 0.35v3.99c0.19-0.046 0.38-0.095 0.569-0.147l0.026-0.006c0.010-0.002 0.021-0.006 0.030-0.008 0.154-0.043 0.308-0.087 0.46-0.133 0.018-0.006 0.037-0.011 0.056-0.017 0.060-0.018 0.117-0.037 0.176-0.056v-3.974h0.001zM19.258 13.655c-0.429 0.082-0.868 0.155-1.318 0.216v4.006c0.042-0.006 0.085-0.012 0.127-0.018 0.040-0.006 0.079-0.012 0.118-0.017 0.060-0.009 0.119-0.018 0.178-0.028 0.041-0.006 0.082-0.013 0.122-0.020 0.032-0.006 0.064-0.011 0.096-0.016 0.227-0.038 0.452-0.080 0.675-0.125v-3.997h0.001zM14.804 18.13v-4.013c-0.218 0.005-0.437 0.008-0.659 0.008s-0.441-0.002-0.659-0.008v4.013c0.218 0.005 0.438 0.008 0.659 0.008s0.44-0.002 0.659-0.008zM12.719 24.092c0.432 0.086 0.872 0.162 1.317 0.226v-3.987c-0.448-0.061-0.888-0.134-1.318-0.216l0 3.977zM14.946 20.438v3.994c0.436 0.048 0.875 0.085 1.318 0.112v-4.003c-0.446-0.025-0.885-0.060-1.318-0.104zM5.119 20.076l0.010 0.015v-2.645c-0.025-0.010-0.050-0.020-0.075-0.030-0.061-0.025-0.12-0.052-0.179-0.078-0.038-0.017-0.076-0.033-0.115-0.049-0.034-0.015-0.070-0.029-0.104-0.045v1.253c0 0.1 0.006 0.2 0.017 0.299l0.010 0.072c0.002 0.019 0.005 0.038 0.008 0.056 0.004 0.024 0.008 0.047 0.012 0.071 0.006 0.034 0.012 0.069 0.020 0.103 0.018 0.075 0.037 0.145 0.057 0.212 0.014 0.045 0.029 0.091 0.044 0.137 0.029 0.085 0.062 0.166 0.099 0.248 0.015 0.032 0.030 0.064 0.045 0.096 0.001 0.001 0.001 0.002 0.002 0.003 0.006 0.014 0.013 0.027 0.020 0.041 0.033 0.067 0.070 0.135 0.112 0.208 0.006 0.012 0.013 0.023 0.019 0.034zM8.122 13.464c-0.453-0.105-0.892-0.223-1.318-0.35v3.974l0.104 0.033 0.432 0.127c0.003 0.001 0.006 0.002 0.008 0.003 0.024 0.006 0.047 0.013 0.071 0.020 0.080 0.022 0.16 0.044 0.238 0.065 0.010 0.002 0.019 0.005 0.028 0.007 0.046 0.012 0.092 0.024 0.137 0.036 0.065 0.017 0.131 0.033 0.197 0.049 0.034 0.009 0.069 0.017 0.104 0.025v-3.989h-0.001zM6.448 21.534c0.050 0.040 0.1 0.080 0.151 0.119 0.020 0.011 0.037 0.025 0.053 0.039l0.225 0.161c0.084 0.058 0.174 0.119 0.272 0.182l0.195 0.122c0.003 0.002 0.007 0.004 0.010 0.006v-3.876c-0.031-0.018-0.063-0.034-0.094-0.052-0.043-0.024-0.085-0.049-0.127-0.073-0.032-0.018-0.064-0.037-0.096-0.055l-0.396-0.119c-0.135-0.042-0.273-0.087-0.413-0.133-0.019-0.006-0.038-0.011-0.056-0.019-0.019-0.006-0.037-0.013-0.056-0.019-0.017-0.006-0.033-0.012-0.051-0.018-0.010-0.003-0.019-0.006-0.028-0.010v3.38c0.118 0.117 0.249 0.235 0.41 0.365zM9.582 23.215v-3.94c-0.018-0.006-0.037-0.013-0.056-0.020-0.050-0.018-0.1-0.037-0.15-0.055-0.053-0.020-0.106-0.039-0.159-0.059-0.049-0.019-0.097-0.038-0.147-0.057-0.052-0.020-0.104-0.041-0.155-0.061-0.048-0.019-0.096-0.039-0.143-0.059-0.051-0.021-0.101-0.041-0.151-0.063-0.047-0.020-0.093-0.041-0.139-0.061-0.049-0.021-0.1-0.043-0.148-0.065-0.024-0.010-0.047-0.021-0.071-0.033v3.909c0.418 0.203 0.858 0.391 1.317 0.563zM10.349 17.877v-4.006c-0.585-0.079-1.033-0.155-1.477-0.242l0.16 0.026v3.997c0.053 0.010 0.107 0.022 0.16 0.033 0.006 0.002 0.013 0.002 0.019 0.004 0.161 0.031 0.323 0.060 0.487 0.087 0.039 0.006 0.077 0.013 0.116 0.020 0.033 0.006 0.065 0.010 0.098 0.016 0.068 0.010 0.135 0.022 0.202 0.032 0.032 0.005 0.064 0.010 0.096 0.014 0.047 0.006 0.093 0.013 0.139 0.019zM4.578 12.284v3.92c0.013 0.006 0.026 0.013 0.038 0.019 0.021 0.010 0.041 0.020 0.061 0.030 0.229 0.11 0.47 0.218 0.724 0.324 0.162 0.068 0.327 0.132 0.494 0.195v-3.957c-0.461-0.164-0.902-0.342-1.317-0.531zM11.504 19.849c-0.048-0.012-0.095-0.024-0.142-0.037-0.068-0.018-0.135-0.034-0.202-0.052-0.053-0.014-0.106-0.029-0.158-0.043-0.060-0.017-0.12-0.033-0.18-0.049-0.054-0.015-0.107-0.031-0.161-0.047-0.056-0.017-0.113-0.033-0.169-0.049v3.954c0.292 0.1 0.733 0.225 1.179 0.335l0.138 0.029v-3.968c-0.102-0.024-0.204-0.048-0.305-0.073zM23.912 17.117c0.725-0.192 1.392-0.417 1.987-0.67 1.831-0.778 2.958-1.795 2.958-2.873 0-0.334-0.109-0.663-0.315-0.978-0.088-0.135-0.193-0.268-0.314-0.399 0 0.004-0.001 0.009-0.001 0.013-0.001 0.011-0.001 0.022-0.002 0.033-0.001 0.018-0.003 0.036-0.004 0.054-0.001 0.017-0.002 0.033-0.004 0.050s-0.002 0.033-0.004 0.050c-0.002 0.017-0.004 0.034-0.006 0.052l-0.007 0.054c-0.006 0.053-0.014 0.104-0.023 0.156-0.002 0.014-0.005 0.029-0.008 0.043-0.011 0.059-0.023 0.117-0.037 0.176-0.002 0.007-0.003 0.013-0.005 0.021-0.082 0.344-0.213 0.679-0.389 1.005-0.006 0.012-0.012 0.022-0.017 0.031l0.001-0.002c-0.028 0.051-0.057 0.102-0.088 0.153-0.010 0.017-0.021 0.035-0.031 0.052-0.026 0.041-0.051 0.081-0.078 0.122-0.016 0.024-0.031 0.049-0.048 0.072-0.019 0.028-0.040 0.057-0.060 0.084-0.198 0.28-0.43 0.552-0.694 0.812-0.010 0.011-0.021 0.022-0.032 0.031-0.306 0.298-0.652 0.583-1.034 0.851-0.39 0.274-0.817 0.532-1.276 0.771-0.001 0.001-0.002 0.001-0.003 0.002s-0.003 0.002-0.006 0.003c-0.084 0.044-0.168 0.087-0.254 0.129-0.016 0.008-0.032 0.016-0.048 0.023-0.053 0.025-0.108 0.052-0.163 0.078zM2.351 14.728c0.373 0.345 0.815 0.672 1.317 0.978v-3.878c-0.037-0.021-0.074-0.041-0.111-0.061-0.032-0.018-0.063-0.036-0.095-0.054-0.049-0.028-0.096-0.056-0.144-0.084-0.031-0.018-0.061-0.037-0.092-0.056-0.048-0.029-0.095-0.058-0.141-0.087-0.029-0.018-0.058-0.037-0.087-0.055-0.048-0.030-0.095-0.061-0.141-0.092-0.026-0.018-0.053-0.035-0.079-0.053-0.049-0.033-0.098-0.067-0.146-0.101-0.022-0.015-0.045-0.031-0.066-0.046-0.056-0.040-0.11-0.080-0.164-0.12-0.014-0.010-0.027-0.020-0.041-0.030-0.003-0.002-0.007-0.006-0.011-0.008v3.747zM3.852 27.645c0.373 0.345 0.815 0.672 1.317 0.978v-3.878c-0.036-0.020-0.072-0.040-0.108-0.060s-0.069-0.040-0.104-0.060c-0.045-0.026-0.090-0.052-0.135-0.079-0.033-0.020-0.067-0.040-0.1-0.060-0.045-0.027-0.089-0.054-0.133-0.082-0.032-0.020-0.063-0.040-0.094-0.060-0.045-0.029-0.089-0.058-0.133-0.087-0.029-0.019-0.058-0.038-0.086-0.057-0.046-0.031-0.092-0.063-0.137-0.095-0.025-0.018-0.050-0.035-0.075-0.053-0.052-0.037-0.102-0.074-0.152-0.111-0.017-0.013-0.035-0.026-0.052-0.038-0.003-0.002-0.006-0.005-0.009-0.006v3.748h-0.001zM8.306 26.029v3.975c0.423 0.134 0.863 0.256 1.317 0.366v-3.991c-0.453-0.105-0.892-0.222-1.317-0.35zM10.533 30.57c0.428 0.085 0.867 0.159 1.317 0.223v-4.006c-0.586-0.079-1.034-0.155-1.478-0.242l0.16 0.026v3.999zM12.761 30.906c0.432 0.045 0.871 0.080 1.317 0.106v-4.012c-0.445-0.024-0.885-0.059-1.317-0.103v4.009zM17.215 26.999v4.012c0.446-0.025 0.886-0.060 1.317-0.106v-4.009c-0.432 0.045-0.871 0.079-1.317 0.103zM19.442 30.794c0.449-0.064 0.889-0.138 1.318-0.223v-3.999c-0.429 0.082-0.868 0.154-1.318 0.216v4.006zM21.669 30.371c0.455-0.11 0.894-0.233 1.317-0.366v-3.973c-0.007 0.002-0.014 0.004-0.020 0.006-0.418 0.125-0.851 0.239-1.297 0.343v3.991zM26.123 24.745v3.878c0.502-0.306 0.944-0.633 1.317-0.978v-3.747c-0.002 0.002-0.004 0.003-0.006 0.005-0.048 0.036-0.097 0.072-0.146 0.107-0.041 0.030-0.082 0.061-0.124 0.090-0.053 0.037-0.108 0.074-0.162 0.111-0.041 0.027-0.080 0.054-0.12 0.081-0.059 0.038-0.12 0.077-0.181 0.115-0.039 0.024-0.076 0.049-0.116 0.073-0.065 0.040-0.132 0.079-0.199 0.118-0.037 0.022-0.073 0.043-0.11 0.065-0.051 0.028-0.102 0.056-0.153 0.084zM29.024 21.685c0.217-0.162 0.418-0.327 0.603-0.498v-3.747c-0.003 0.002-0.007 0.005-0.010 0.008-0.014 0.010-0.028 0.021-0.041 0.031-0.053 0.040-0.107 0.080-0.163 0.119-0.022 0.016-0.045 0.031-0.067 0.047-0.048 0.033-0.096 0.068-0.146 0.101-0.026 0.017-0.053 0.035-0.079 0.053-0.047 0.031-0.093 0.061-0.141 0.092-0.029 0.018-0.057 0.037-0.087 0.055-0.047 0.029-0.094 0.058-0.142 0.088l-0.091 0.055c-0.048 0.029-0.097 0.057-0.146 0.085-0.031 0.018-0.061 0.036-0.092 0.053-0.037 0.021-0.075 0.041-0.112 0.062v3.864c0.232-0.137 0.461-0.28 0.7-0.458 0.005-0.006 0.010-0.008 0.014-0.011zM0.968 7.115c0 0.495 0.134 0.978 0.384 1.442 0.202 0.374 0.479 0.734 0.824 1.079 0.027 0.021 0.052 0.046 0.074 0.073 0.537 0.518 1.227 0.998 2.043 1.427 0.025 0.010 0.049 0.022 0.071 0.037 0.111 0.057 0.222 0.114 0.337 0.169 0.542 0.26 1.131 0.499 1.76 0.711 0.023 0.006 0.046 0.014 0.068 0.022 0.663 0.221 1.372 0.415 2.117 0.576 0.017 0.002 0.033 0.006 0.049 0.010 0.687 0.147 1.405 0.267 2.148 0.358 0.006 0.001 0.013 0.002 0.019 0.002 1.049 0.127 2.148 0.194 3.282 0.194s2.231-0.068 3.28-0.194c0.007-0.001 0.014-0.002 0.022-0.002 0.744-0.090 1.462-0.21 2.15-0.358 0.015-0.004 0.030-0.007 0.045-0.009 0.746-0.162 1.454-0.355 2.118-0.576 0.022-0.009 0.045-0.017 0.069-0.023 0.629-0.213 1.219-0.451 1.76-0.711 0.115-0.055 0.227-0.111 0.338-0.169 0.022-0.014 0.045-0.025 0.069-0.035 0.817-0.429 1.508-0.91 2.045-1.428 0.022-0.027 0.046-0.051 0.073-0.072 0.434-0.434 0.762-0.893 0.965-1.371 0.159-0.374 0.244-0.759 0.244-1.152 0-1.621-1.427-3.118-3.733-4.227-2.407-1.157-5.746-1.873-9.444-1.873s-7.036 0.716-9.444 1.873c-2.306 1.108-3.733 2.605-3.733 4.226zM0.968 12.039c0 0.55 0.165 1.086 0.472 1.598v-3.459l-0.045-0.047c-0.036-0.038-0.072-0.076-0.106-0.116-0.017-0.018-0.033-0.037-0.049-0.056-0.027-0.030-0.059-0.068-0.092-0.107l-0.008-0.010c-0.015-0.018-0.030-0.037-0.045-0.054-0.033-0.041-0.065-0.082-0.097-0.123-0.010-0.013-0.020-0.025-0.029-0.037v2.412zM2.947 18.425c-0.311 0.511-0.477 1.051-0.477 1.607 0 0.27 0.041 0.537 0.117 0.799 0.384 1.31 1.694 2.503 3.616 3.428 2.407 1.157 5.745 1.873 9.444 1.873 2.595 0 5.014-0.354 7.060-0.965 0.056-0.017 0.111-0.034 0.167-0.052 0.063-0.020 0.127-0.039 0.19-0.059 0.059-0.019 0.117-0.039 0.176-0.058 0.047-0.016 0.095-0.031 0.142-0.047-0.346 0.074-0.68 0.136-1.009 0.189-0.371 0.062-0.75 0.116-1.134 0.163-0.009 0.002-0.018 0.002-0.026 0.003-0.972 0.118-1.984 0.186-3.024 0.198h-0.002c-0.117 0.002-0.234 0.002-0.352 0.002-1.164 0-2.296-0.070-3.377-0.201-0.010-0.001-0.019-0.002-0.029-0.003-0.482-0.059-0.954-0.13-1.415-0.212-2.626-0.249-4.922-0.866-6.559-1.713-1.716-0.888-2.741-2.049-2.741-3.347 0-0.146 0.014-0.296 0.043-0.449v-0.002c0.018-0.101 0.045-0.202 0.076-0.302-0.023-0.097-0.044-0.22-0.058-0.346l-0.002-0.016c0-0.002-0.001-0.006-0.001-0.008v-0.003c-0.014-0.121-0.023-0.263-0.024-0.406v-1.056c-0.326 0.314-0.594 0.642-0.8 0.981zM2.469 24.955c0 0.55 0.165 1.087 0.472 1.599v-3.459c-0.016-0.016-0.031-0.033-0.046-0.049-0.035-0.037-0.069-0.074-0.103-0.112-0.018-0.020-0.035-0.039-0.053-0.059-0.033-0.037-0.065-0.076-0.097-0.114-0.016-0.019-0.033-0.039-0.049-0.058-0.032-0.039-0.063-0.079-0.094-0.119-0.010-0.013-0.022-0.027-0.032-0.041v2.412h0.001zM6.202 29.181c0.376 0.181 0.774 0.35 1.194 0.509v-3.959c-0.461-0.164-0.902-0.342-1.317-0.531v3.92c0.042 0.022 0.082 0.041 0.123 0.061zM16.305 31.048v-4.014c-0.218 0.005-0.437 0.008-0.659 0.008s-0.44-0.002-0.659-0.008v4.013c0.218 0.005 0.438 0.008 0.659 0.008s0.44-0.002 0.659-0.007zM25.090 29.181c0.041-0.020 0.082-0.041 0.123-0.061v-3.92c-0.081 0.037-0.164 0.074-0.248 0.11-0.016 0.007-0.032 0.014-0.048 0.022-0.117 0.051-0.237 0.1-0.357 0.149-0.003 0.002-0.006 0.003-0.010 0.004l-0 0c-0.213 0.085-0.431 0.167-0.654 0.247v3.958c0.419-0.158 0.818-0.328 1.194-0.509zM28.823 22.914c-0.147 0.095-0.311 0.189-0.473 0.276v3.364c0.308-0.511 0.473-1.048 0.473-1.599v-2.041zM30.982 16.119c-0.033 0.043-0.067 0.086-0.101 0.128-0.014 0.018-0.029 0.034-0.043 0.052-0.033 0.041-0.068 0.081-0.103 0.12-0.016 0.017-0.032 0.036-0.048 0.053-0.035 0.039-0.071 0.078-0.108 0.117-0.014 0.015-0.029 0.031-0.044 0.046v3.459c0.307-0.511 0.473-1.048 0.473-1.599v-2.411c-0.009 0.011-0.018 0.022-0.027 0.033z"></path>
</symbol>
</defs>
</svg>
